<?xml version="1.0" encoding="iso-8859-1"?>
<!-- Generator: Adobe Illustrator 19.1.1, SVG Export Plug-In . SVG Version: 6.00 Build 0)  -->
<svg version="1.1" xmlns="http://www.w3.org/2000/svg" xmlns:xlink="http://www.w3.org/1999/xlink" x="0px" y="0px"
	 viewBox="0 0 109.914 109.642" style="enable-background:new 0 0 109.914 109.642;" xml:space="preserve">
<g id="Layer_1">
	
		<circle id="XMLID_3_" style="display:none;fill:none;stroke:#54A4DB;stroke-width:4;stroke-miterlimit:10;" cx="55" cy="55.128" r="51.795"/>
	<g id="phase_3" style="display:none;">
		
			<rect id="XMLID_2879_" x="24.953" y="33.703" style="display:inline;fill:#57ACE1;stroke:#FFFFFF;stroke-width:3;stroke-miterlimit:10;" width="60.095" height="40.851"/>
		<path id="XMLID_2875_" style="display:inline;fill:#1A5083;" d="M42.758,45.147H32.744c-0.613,0-1.114-0.494-1.114-1.114
			c0-0.613,0.501-1.107,1.114-1.107h10.014c0.615,0,1.114,0.494,1.114,1.107C43.872,44.653,43.373,45.147,42.758,45.147
			L42.758,45.147z M42.758,45.147"/>
		<path id="XMLID_2754_" style="display:inline;fill:#1A5083;" d="M38.308,41.811h-5.564c-0.613,0-1.114-0.501-1.114-1.114
			s0.501-1.114,1.114-1.114h5.564c0.613,0,1.114,0.501,1.114,1.114S38.922,41.811,38.308,41.811L38.308,41.811z M38.308,41.811"/>
		<path id="XMLID_2741_" style="display:inline;fill:#1A5083;" d="M42.758,48.489H32.744c-0.613,0-1.114-0.501-1.114-1.114
			c0-0.615,0.501-1.114,1.114-1.114h10.014c0.615,0,1.114,0.499,1.114,1.114C43.872,47.988,43.373,48.489,42.758,48.489
			L42.758,48.489z M42.758,48.489"/>
		<path id="XMLID_2702_" style="display:inline;fill:#FCC016;" d="M75.027,55.514c-0.91,0-1.643-0.499-1.643-1.114v-7.785
			c0-0.62,0.733-1.114,1.643-1.114c0.921,0,1.654,0.494,1.654,1.114V54.4C76.68,55.014,75.947,55.514,75.027,55.514L75.027,55.514z
			 M75.027,55.514"/>
		<path id="XMLID_2699_" style="display:inline;fill:#FCC016;" d="M75.384,48.889h-7.785c-0.615,0-1.114-0.753-1.114-1.689
			c0-0.946,0.499-1.7,1.114-1.7h7.785c0.62,0,1.114,0.753,1.114,1.7C76.498,48.136,76.004,48.889,75.384,48.889L75.384,48.889z
			 M75.384,48.889"/>
		<path id="XMLID_2696_" style="display:inline;fill:#1A5083;" d="M87.269,78.53H22.73c-0.615,0-1.114-0.766-1.114-1.729
			c0-0.952,0.499-1.718,1.114-1.718h64.539c0.615,0,1.114,0.766,1.114,1.718C88.384,77.764,87.884,78.53,87.269,78.53L87.269,78.53z
			 M87.269,78.53"/>
		<path id="XMLID_2691_" style="display:inline;fill:#556180;" d="M55,81.873c-0.613,0-1.114-0.501-1.114-1.114v-3.343
			c0-0.613,0.501-1.107,1.114-1.107s1.114,0.494,1.114,1.107v3.343C56.114,81.372,55.613,81.873,55,81.873L55,81.873z M55,81.873"/>
		<path id="XMLID_2068_" style="display:inline;fill:#1A5083;" d="M55,90.146c-2.726,0-4.938-2.212-4.938-4.938
			s2.212-4.938,4.938-4.938c2.726,0,4.937,2.212,4.937,4.938S57.726,90.146,55,90.146L55,90.146z M55,83.203
			c-1.105,0-2.005,0.9-2.005,2.005s0.9,2.005,2.005,2.005c1.105,0,2.005-0.9,2.005-2.005S56.105,83.203,55,83.203L55,83.203z
			 M55,82.736"/>
		<g id="XMLID_2067_" style="display:inline;">
			<path style="fill:none;stroke:#FCC016;stroke-width:3.5;stroke-linecap:round;stroke-miterlimit:10;" d="M32.858,69.631
				l14.264-14.095c0.391-0.387,1.034-0.389,1.428-0.005l8.318,8.104c0.394,0.384,1.04,0.386,1.436,0.004l15.724-15.15"/>
		</g>
		<rect id="XMLID_2880_" x="22.73" y="22.442" style="display:inline;fill:#1A5083;" width="64.539" height="10.225"/>
	</g>
	<g id="&#x62A;&#x6A9;&#x645;&#x6CC;&#x644;_&#x634;&#x62F;&#x647;">
		<path id="XMLID_2506_" style="opacity:0.84;fill:#0A8D73;" d="M108.825,55.122c0,29.618-24.136,53.628-53.909,53.628
			c-29.773,0-53.908-24.01-53.908-53.628c0-29.618,24.136-53.628,53.908-53.628C84.69,1.495,108.825,25.505,108.825,55.122
			L108.825,55.122z M108.825,55.122"/>
		<g id="XMLID_2495_">
			<defs>
				<rect id="XMLID_2266_" x="1.008" y="1.329" width="107.984" height="107.676"/>
			</defs>
			<clipPath id="XMLID_6_">
				<use xlink:href="#XMLID_2266_"  style="overflow:visible;"/>
			</clipPath>
			<path id="XMLID_2503_" style="clip-path:url(#XMLID_6_);fill:#39A18E;" d="M100.066,25.879L52.389,74.982l0.085,5.279h2.19
				l51.635-41.394C104.783,34.258,102.676,29.817,100.066,25.879L100.066,25.879z M100.066,25.879"/>
			<path id="XMLID_2500_" style="clip-path:url(#XMLID_6_);fill:#F2F1EF;" d="M107.816,23.533l-9.519-9.385
				c-1.263-1.257-3.37-1.257-4.717,0L52.895,55.961L35.29,38.699c-1.263-1.257-3.369-1.257-4.716,0l-8.423,8.295
				c-1.264,1.257-1.264,3.352,0,4.609l28.133,27.735c0.758,0.754,1.769,1.006,2.78,0.922c1.011,0.084,2.021-0.167,2.779-0.922
				l51.973-51.115C109.078,26.884,109.078,24.789,107.816,23.533L107.816,23.533z M107.816,23.533"/>
			<path id="XMLID_2497_" style="clip-path:url(#XMLID_6_);fill:#E6E5E3;" d="M55.843,79.339l51.973-51.115
				c1.262-1.257,1.262-3.351,0-4.608l-1.516-1.424l-53.32,52.119L23.498,45.737l-1.264,1.257c-1.263,1.257-1.263,3.352,0,4.609
				l28.135,27.735c0.758,0.754,1.769,1.006,2.779,0.922C54.075,80.345,55.085,80.093,55.843,79.339L55.843,79.339z M55.843,79.339"
				/>
		</g>
	</g>
</g>
<g id="Layer_2" style="display:none;">
	
		<circle id="XMLID_2150_" style="display:inline;fill:none;stroke:#676767;stroke-width:4;stroke-miterlimit:10;" cx="55" cy="55.128" r="51.795"/>
	<g id="phase_3_GRAY" style="display:inline;">
		<rect id="XMLID_2884_" x="24.952" y="30.683" style="fill:#ECF0F1;" width="60.095" height="46.734"/>
		<path id="XMLID_2881_" style="fill:#B4B4B4;" d="M42.758,45.147H32.744c-0.613,0-1.114-0.494-1.114-1.114
			c0-0.613,0.501-1.107,1.114-1.107h10.014c0.615,0,1.114,0.494,1.114,1.107C43.872,44.653,43.373,45.147,42.758,45.147
			L42.758,45.147z M42.758,45.147"/>
		<path id="XMLID_2737_" style="fill:#B4B4B4;" d="M38.308,41.811h-5.564c-0.613,0-1.114-0.501-1.114-1.114s0.501-1.114,1.114-1.114
			h5.564c0.613,0,1.114,0.501,1.114,1.114S38.922,41.811,38.308,41.811L38.308,41.811z M38.308,41.811"/>
		<path id="XMLID_2734_" style="fill:#B4B4B4;" d="M42.758,48.489H32.744c-0.613,0-1.114-0.501-1.114-1.114
			c0-0.615,0.501-1.114,1.114-1.114h10.014c0.615,0,1.114,0.499,1.114,1.114C43.872,47.988,43.373,48.489,42.758,48.489
			L42.758,48.489z M42.758,48.489"/>
		<path id="XMLID_2730_" style="fill:#4E4E4E;" d="M75.027,55.514c-0.91,0-1.643-0.499-1.643-1.114v-7.785
			c0-0.62,0.733-1.114,1.643-1.114c0.921,0,1.654,0.494,1.654,1.114V54.4C76.68,55.014,75.947,55.514,75.027,55.514L75.027,55.514z
			 M75.027,55.514"/>
		<path id="XMLID_2502_" style="fill:#4E4E4E;" d="M75.384,48.889h-7.785c-0.615,0-1.114-0.753-1.114-1.689
			c0-0.946,0.499-1.7,1.114-1.7h7.785c0.62,0,1.114,0.753,1.114,1.7C76.498,48.136,76.004,48.889,75.384,48.889L75.384,48.889z
			 M75.384,48.889"/>
		<path id="XMLID_600_" style="fill:#808081;" d="M87.269,78.53H22.73c-0.615,0-1.114-0.766-1.114-1.729
			c0-0.952,0.499-1.718,1.114-1.718h64.539c0.615,0,1.114,0.766,1.114,1.718C88.384,77.764,87.884,78.53,87.269,78.53L87.269,78.53z
			 M87.269,78.53"/>
		<path id="XMLID_288_" style="fill:#808081;" d="M55,81.873c-0.613,0-1.114-0.501-1.114-1.114v-3.343
			c0-0.613,0.501-1.107,1.114-1.107s1.114,0.494,1.114,1.107v3.343C56.114,81.372,55.613,81.873,55,81.873L55,81.873z M55,81.873"/>
		<path id="XMLID_284_" style="fill:#808081;" d="M55,90.146c-2.726,0-4.938-2.212-4.938-4.938s2.212-4.938,4.938-4.938
			c2.726,0,4.937,2.212,4.937,4.938S57.726,90.146,55,90.146L55,90.146z M55,83.203c-1.105,0-2.005,0.9-2.005,2.005
			s0.9,2.005,2.005,2.005c1.105,0,2.005-0.9,2.005-2.005S56.105,83.203,55,83.203L55,83.203z M55,82.736"/>
		<g id="XMLID_283_">
			<path style="fill:none;stroke:#4E4E4E;stroke-width:3.5;stroke-linecap:round;stroke-miterlimit:10;" d="M32.858,69.631
				l14.264-14.095c0.391-0.387,1.034-0.389,1.428-0.005l8.318,8.104c0.394,0.384,1.04,0.386,1.436,0.004l15.724-15.15"/>
		</g>
		<rect id="XMLID_282_" x="22.73" y="22.443" style="fill:#808081;" width="64.539" height="10.115"/>
	</g>
</g>
</svg>
