<?xml version="1.0" encoding="iso-8859-1"?>
<!-- Generator: Adobe Illustrator 19.1.1, SVG Export Plug-In . SVG Version: 6.00 Build 0)  -->
<svg version="1.1" id="Layer_2" xmlns="http://www.w3.org/2000/svg" xmlns:xlink="http://www.w3.org/1999/xlink" x="0px" y="0px"
	 viewBox="0 0 761.974 277.696" style="enable-background:new 0 0 761.974 277.696;" xml:space="preserve">
<g id="XMLID_3407_">
	<path id="XMLID_2_" style="fill:none;stroke:#E6E6E6;stroke-width:0.5;stroke-miterlimit:10;" d="M761.974,195.799
		C469.482,348.069,314.818-7.229,6.344,277.696"/>
	<path style="fill:none;stroke:#E6E6E6;stroke-width:0.5;stroke-miterlimit:10;" d="M761.974,199.608
		c-299.086,146.63-436.281-211.17-755.63,62.634"/>
	<path style="fill:none;stroke:#E6E6E6;stroke-width:0.5;stroke-miterlimit:10;" d="M761.974,203.416
		C456.295,344.407,336.57-15.895,6.344,246.788"/>
	<path style="fill:none;stroke:#E6E6E6;stroke-width:0.5;stroke-miterlimit:10;" d="M761.974,207.225
		C449.702,342.576,347.445-20.228,6.344,231.335"/>
	<path style="fill:none;stroke:#E6E6E6;stroke-width:0.5;stroke-miterlimit:10;" d="M761.974,211.033
		C443.109,340.744,358.321-24.561,6.344,215.881"/>
	<path style="fill:none;stroke:#E6E6E6;stroke-width:0.5;stroke-miterlimit:10;" d="M761.974,214.841
		C436.516,338.913,369.197-28.895,6.344,200.427"/>
	<path style="fill:none;stroke:#E6E6E6;stroke-width:0.5;stroke-miterlimit:10;" d="M761.974,218.65
		C429.922,337.082,380.073-33.228,6.344,184.973"/>
	<path style="fill:none;stroke:#E6E6E6;stroke-width:0.5;stroke-miterlimit:10;" d="M761.974,222.458
		C423.329,335.251,390.949-37.561,6.344,169.519"/>
	<path style="fill:none;stroke:#E6E6E6;stroke-width:0.5;stroke-miterlimit:10;" d="M761.974,226.266
		c-345.238,107.153-360.15-268.16-755.63-72.201"/>
	<path style="fill:none;stroke:#E6E6E6;stroke-width:0.5;stroke-miterlimit:10;" d="M761.974,230.075
		C410.143,331.588,412.701-46.227,6.344,138.612"/>
	<path style="fill:none;stroke:#E6E6E6;stroke-width:0.5;stroke-miterlimit:10;" d="M761.974,233.883
		C403.55,329.757,423.577-50.56,6.344,123.158"/>
	<path style="fill:none;stroke:#E6E6E6;stroke-width:0.5;stroke-miterlimit:10;" d="M761.974,237.691
		C396.956,327.925,434.453-54.894,6.344,107.704"/>
	<path style="fill:none;stroke:#E6E6E6;stroke-width:0.5;stroke-miterlimit:10;" d="M761.974,241.5
		C390.363,326.094,445.328-59.227,6.344,92.251"/>
	<path style="fill:none;stroke:#E6E6E6;stroke-width:0.5;stroke-miterlimit:10;" d="M761.974,245.308
		C383.77,324.263,456.204-63.56,6.344,76.797"/>
	<path style="fill:none;stroke:#E6E6E6;stroke-width:0.5;stroke-miterlimit:10;" d="M761.974,249.117
		C377.177,322.432,467.08-67.893,6.344,61.343"/>
	<path style="fill:none;stroke:#E6E6E6;stroke-width:0.5;stroke-miterlimit:10;" d="M761.974,252.925
		C370.583,320.6,477.956-72.226,6.344,45.889"/>
	<path style="fill:none;stroke:#E6E6E6;stroke-width:0.5;stroke-miterlimit:10;" d="M761.974,256.733
		C363.99,318.769,488.832-76.559,6.344,30.436"/>
	<path id="XMLID_1_" style="fill:none;stroke:#E6E6E6;stroke-width:0.5;stroke-miterlimit:10;" d="M761.974,260.542
		C357.397,316.938,499.708-80.893,6.344,14.982"/>
</g>
</svg>
