<?xml version="1.0" encoding="iso-8859-1"?>
<!-- Generator: Adobe Illustrator 19.1.1, SVG Export Plug-In . SVG Version: 6.00 Build 0)  -->
<svg version="1.1" id="Layer_1" xmlns="http://www.w3.org/2000/svg" xmlns:xlink="http://www.w3.org/1999/xlink" x="0px" y="0px"
	 viewBox="0 0 21.4 26.4" style="enable-background:new 0 0 21.4 26.4;" xml:space="preserve">
<g id="XMLID_2307_">
	<polygon id="XMLID_2311_" style="fill:#56ACE0;" points="21.4,0 0,0 0,26.4 10.7,19.668 21.4,26.4 	"/>
	<path id="XMLID_2308_" style="display:none;fill:#FFFFFF;" d="M14.809,10.109h-3.425V6.683c0-0.378-0.307-0.686-0.686-0.686
		c-0.378,0-0.686,0.308-0.686,0.686v3.425H6.586c-0.378,0-0.682,0.307-0.682,0.686c0,0.378,0.304,0.686,0.682,0.686h3.425v3.425
		c0,0.378,0.308,0.682,0.686,0.682c0.379,0,0.686-0.304,0.686-0.682v-3.425h3.425c0.378,0,0.686-0.308,0.686-0.686
		C15.495,10.416,15.187,10.109,14.809,10.109L14.809,10.109z M14.809,10.109"/>
</g>
</svg>
