<?xml version="1.0" encoding="utf-8"?>
<!-- Generator: Adobe Illustrator 21.1.0, SVG Export Plug-In . SVG Version: 6.00 Build 0)  -->
<svg version="1.1" id="Layer_1" xmlns="http://www.w3.org/2000/svg" xmlns:xlink="http://www.w3.org/1999/xlink" x="0px" y="0px"
	 viewBox="0 0 29.4 28.3" style="enable-background:new 0 0 29.4 28.3;" xml:space="preserve">
<style type="text/css">
	.st0{fill:#FF0000;}
	.st1{fill:#FFFFFF;}
	.st2{opacity:0.86;}
	.st3{fill:#B71D1D;}
</style>
<g id="XMLID_2_">
	<path class="st0" d="M26.3,28.3H2.9c-1.7,0-3-1.3-3-3V3c0-1.7,1.3-3,3-3h23.4c1.7,0,3,1.3,3,3v22.3C29.3,27,28,28.3,26.3,28.3z"/>
</g>
<g>
	<path class="st1" d="M10.3,22.3c-4.3,0-7.9-3.5-7.9-7.9s3.5-7.9,7.9-7.9c2.1,0,3.9,0.8,5.3,2.1l-2.1,2c-0.6-0.6-1.6-1.2-3.1-1.2
		c-2.7,0-4.9,2.2-4.9,5s2.2,5,4.9,5c3.1,0,4.3-2.2,4.5-3.4h-4.5v-2.7h7.4c0.1,0.4,0.1,0.8,0.1,1.3C17.8,19.1,14.8,22.3,10.3,22.3z
		 M27.1,15.6h-2.2v2.2h-2.3v-2.2h-2.2v-2.3h2.2v-2.2h2.3v2.2h2.2V15.6z"/>
</g>
<g id="XMLID_24_" class="st2">
	<path class="st3" d="M26.6,28.3H3.1c-1.7,0-3-1.3-3-3V3c0-1.7,1.3-3,3-3h23.4c1.7,0,3,1.3,3,3v22.3C29.6,27,28.2,28.3,26.6,28.3z"
		/>
</g>
<g>
	<path class="st1" d="M16.2,14.3c-0.1-0.1-0.1-0.2,0-0.3l3.3-3.3c0.1-0.1,0.1-0.2,0.1-0.3c0-0.1,0-0.2-0.1-0.3l-0.6-0.6
		c-0.1-0.1-0.2-0.1-0.3-0.1c-0.1,0-0.2,0-0.3,0.1L15,12.8c-0.1,0.1-0.2,0.1-0.3,0l-3.3-3.3c-0.1-0.1-0.2-0.1-0.3-0.1
		c-0.1,0-0.2,0-0.3,0.1l-0.6,0.6C10,10.1,10,10.3,10,10.4c0,0.1,0,0.2,0.1,0.3l3.3,3.3c0.1,0.1,0.1,0.2,0,0.3l-3.3,3.3
		C10,17.7,10,17.8,10,17.9c0,0.1,0,0.2,0.1,0.3l0.6,0.6C10.8,19,11,19,11.1,19c0.1,0,0.2,0,0.3-0.1l3.3-3.3c0.1-0.1,0.2-0.1,0.3,0
		l3.3,3.3c0.1,0.1,0.2,0.1,0.3,0.1c0.1,0,0.2,0,0.3-0.1l0.6-0.6c0.1-0.1,0.1-0.2,0.1-0.3c0-0.1,0-0.2-0.1-0.3L16.2,14.3z M16.2,14.3
		"/>
</g>
</svg>
