<?xml version="1.0" encoding="utf-8"?>
<!-- Generator: Adobe Illustrator 21.1.0, SVG Export Plug-In . SVG Version: 6.00 Build 0)  -->
<svg version="1.1" id="Layer_1" xmlns="http://www.w3.org/2000/svg" xmlns:xlink="http://www.w3.org/1999/xlink" x="0px" y="0px"
	 viewBox="0 0 29.4 28.3" style="enable-background:new 0 0 29.4 28.3;" xml:space="preserve">
<style type="text/css">
	.st0{fill:#FF0000;}
	.st1{fill:#FFFFFF;}
</style>
<g id="XMLID_14_">
	<path class="st0" d="M26.4,28.3H3c-1.7,0-3-1.3-3-3V3c0-1.7,1.3-3,3-3h23.4c1.7,0,3,1.3,3,3v22.3C29.4,27,28.1,28.3,26.4,28.3z"/>
</g>
<g>
	<path class="st1" d="M10.4,22.3c-4.3,0-7.9-3.5-7.9-7.9S6,6.6,10.4,6.6c2.1,0,3.9,0.8,5.3,2.1l-2.1,2c-0.6-0.6-1.6-1.2-3.1-1.2
		c-2.7,0-4.9,2.2-4.9,5s2.2,5,4.9,5c3.1,0,4.3-2.2,4.5-3.4h-4.5v-2.7h7.4c0.1,0.4,0.1,0.8,0.1,1.3C17.9,19.1,14.9,22.3,10.4,22.3z
		 M27.2,15.6H25v2.2h-2.3v-2.2h-2.2v-2.3h2.2v-2.2H25v2.2h2.2V15.6z"/>
</g>
</svg>
