<?xml version="1.0" encoding="utf-8"?>
<!-- Generator: Adobe Illustrator 21.1.0, SVG Export Plug-In . SVG Version: 6.00 Build 0)  -->
<svg version="1.1" id="Layer_1" xmlns="http://www.w3.org/2000/svg" xmlns:xlink="http://www.w3.org/1999/xlink" x="0px" y="0px"
	 viewBox="0 0 29.4 28.3" style="enable-background:new 0 0 29.4 28.3;" xml:space="preserve">
<style type="text/css">
	.st0{fill:url(#XMLID_5_);}
	.st1{fill:#FFFFFF;}
	.st2{font-family:'FontAwesome';}
	.st3{font-size:24.4267px;}
	.st4{opacity:0.86;}
	.st5{fill:#B71D1D;}
</style>
<linearGradient id="XMLID_5_" gradientUnits="userSpaceOnUse" x1="-0.1748" y1="28.9384" x2="31.3164" y2="-2.5528">
	<stop  offset="0" style="stop-color:#FFDE24"/>
	<stop  offset="0.457" style="stop-color:#FF4A72"/>
	<stop  offset="0.9991" style="stop-color:#9A3BBB"/>
</linearGradient>
<path id="XMLID_7_" class="st0" d="M26.3,28.3H2.9c-1.7,0-3-1.3-3-3V3c0-1.7,1.3-3,3-3h23.4c1.7,0,3,1.3,3,3v22.3
	C29.3,27,28,28.3,26.3,28.3z"/>
<text id="XMLID_1_" transform="matrix(1 0 0 1 4.143 22.9511)" class="st1 st2 st3"></text>
<g id="XMLID_26_" class="st4">
	<path class="st5" d="M26.6,28.3H3.1c-1.7,0-3-1.3-3-3V3c0-1.7,1.3-3,3-3h23.4c1.7,0,3,1.3,3,3v22.3C29.6,27,28.2,28.3,26.6,28.3z"
		/>
</g>
<g>
	<path class="st1" d="M16.2,14.3c-0.1-0.1-0.1-0.2,0-0.3l3.3-3.3c0.1-0.1,0.1-0.2,0.1-0.3c0-0.1,0-0.2-0.1-0.3l-0.6-0.6
		c-0.1-0.1-0.2-0.1-0.3-0.1c-0.1,0-0.2,0-0.3,0.1L15,12.8c-0.1,0.1-0.2,0.1-0.3,0l-3.3-3.3c-0.1-0.1-0.2-0.1-0.3-0.1
		c-0.1,0-0.2,0-0.3,0.1l-0.6,0.6C10,10.1,10,10.3,10,10.4c0,0.1,0,0.2,0.1,0.3l3.3,3.3c0.1,0.1,0.1,0.2,0,0.3l-3.3,3.3
		C10,17.7,10,17.8,10,17.9c0,0.1,0,0.2,0.1,0.3l0.6,0.6C10.8,19,11,19,11.1,19c0.1,0,0.2,0,0.3-0.1l3.3-3.3c0.1-0.1,0.2-0.1,0.3,0
		l3.3,3.3c0.1,0.1,0.2,0.1,0.3,0.1c0.1,0,0.2,0,0.3-0.1l0.6-0.6c0.1-0.1,0.1-0.2,0.1-0.3c0-0.1,0-0.2-0.1-0.3L16.2,14.3z M16.2,14.3
		"/>
</g>
</svg>
