<?xml version="1.0" encoding="utf-8"?>
<!-- Generator: Adobe Illustrator 21.1.0, SVG Export Plug-In . SVG Version: 6.00 Build 0)  -->
<svg version="1.1" id="Layer_1" xmlns="http://www.w3.org/2000/svg" xmlns:xlink="http://www.w3.org/1999/xlink" x="0px" y="0px"
	 viewBox="0 0 29.4 28.3" style="enable-background:new 0 0 29.4 28.3;" xml:space="preserve">
<style type="text/css">
	.st0{fill:url(#SVGID_1_);}
	.st1{fill:url(#SVGID_2_);}
</style>
<g id="XMLID_32_">
	<linearGradient id="SVGID_1_" gradientUnits="userSpaceOnUse" x1="1.164" y1="27.7105" x2="28.281" y2="0.5935">
		<stop  offset="0" style="stop-color:#FFDE24"/>
		<stop  offset="0.457" style="stop-color:#FF4A72"/>
		<stop  offset="0.9991" style="stop-color:#9A3BBB"/>
	</linearGradient>
	<path class="st0" d="M26.4,1c1.1,0,2,0.9,2,2v22.3c0,1.1-0.9,2-2,2H3c-1.1,0-2-0.9-2-2V3c0-1.1,0.9-2,2-2H26.4 M26.4,0H3
		C1.3,0,0,1.3,0,3v22.3c0,1.7,1.3,3,3,3h23.4c1.7,0,3-1.3,3-3V3C29.4,1.3,28.1,0,26.4,0L26.4,0z"/>
</g>
<g>
	<linearGradient id="SVGID_2_" gradientUnits="userSpaceOnUse" x1="6.0119" y1="22.9373" x2="23.4257" y2="5.5235">
		<stop  offset="0" style="stop-color:#FFDE24"/>
		<stop  offset="0.457" style="stop-color:#FF4A72"/>
		<stop  offset="0.9991" style="stop-color:#9A3BBB"/>
	</linearGradient>
	<path class="st1" d="M25.1,18.5c-0.1,1.7-0.5,3.2-1.7,4.4c-1.2,1.2-2.7,1.6-4.4,1.7c-1.4,0.1-2.9,0.1-4.3,0.1s-2.9,0-4.3-0.1
		c-1.7-0.1-3.2-0.5-4.4-1.7c-1.2-1.2-1.6-2.7-1.7-4.4c-0.1-1.4-0.1-2.9-0.1-4.3s0-2.9,0.1-4.3C4.4,8.2,4.8,6.7,6,5.5
		c1.2-1.2,2.7-1.6,4.4-1.7c1.4-0.1,2.9-0.1,4.3-0.1s2.9,0,4.3,0.1c1.7,0.1,3.2,0.5,4.4,1.7c1.2,1.2,1.6,2.7,1.7,4.4
		c0.1,1.4,0.1,2.9,0.1,4.3S25.2,17.1,25.1,18.5z M8.5,6.1C8.1,6.3,7.7,6.5,7.3,6.9C7,7.2,6.7,7.6,6.6,8.1C6,9.4,6.1,12.7,6.1,14.2
		S6,19,6.6,20.4c0.2,0.5,0.4,0.8,0.8,1.2c0.4,0.4,0.7,0.6,1.2,0.8c1.4,0.5,4.6,0.4,6.2,0.4s4.8,0.1,6.2-0.4c0.5-0.2,0.8-0.4,1.2-0.8
		c0.4-0.4,0.6-0.7,0.8-1.2c0.5-1.4,0.4-4.6,0.4-6.2s0.1-4.8-0.4-6.2c-0.2-0.5-0.4-0.8-0.8-1.2c-0.4-0.4-0.7-0.6-1.2-0.8
		c-1.4-0.5-4.6-0.4-6.2-0.4S9.9,5.5,8.5,6.1z M14.7,19.6c-3,0-5.4-2.4-5.4-5.4s2.4-5.4,5.4-5.4s5.4,2.4,5.4,5.4S17.7,19.6,14.7,19.6
		z M14.7,10.7c-1.9,0-3.5,1.6-3.5,3.5s1.6,3.5,3.5,3.5s3.5-1.6,3.5-3.5S16.6,10.7,14.7,10.7z M20.3,9.9c-0.7,0-1.3-0.6-1.3-1.3
		c0-0.7,0.6-1.3,1.3-1.3c0.7,0,1.3,0.6,1.3,1.3C21.6,9.3,21,9.9,20.3,9.9z"/>
</g>
</svg>
