<?xml version="1.0" encoding="utf-8"?>
<!-- Generator: Adobe Illustrator 21.1.0, SVG Export Plug-In . SVG Version: 6.00 Build 0)  -->
<svg version="1.1" id="Layer_1" xmlns="http://www.w3.org/2000/svg" xmlns:xlink="http://www.w3.org/1999/xlink" x="0px" y="0px"
	 viewBox="0 0 29.4 28.3" style="enable-background:new 0 0 29.4 28.3;" xml:space="preserve">
<style type="text/css">
	.st0{fill:#0A415B;}
</style>
<g id="XMLID_37_">
	<path class="st0" d="M26.4,1c1.1,0,2,0.9,2,2v22.3c0,1.1-0.9,2-2,2H3c-1.1,0-2-0.9-2-2V3c0-1.1,0.9-2,2-2H26.4 M26.4,0H3
		C1.3,0,0,1.3,0,3v22.3c0,1.7,1.3,3,3,3h23.4c1.7,0,3-1.3,3-3V3C29.4,1.3,28.1,0,26.4,0L26.4,0z"/>
</g>
<g>
	<path class="st0" d="M7.3,8.9L7.3,8.9c-1.5,0-2.4-1-2.4-2.2c0-1.3,1-2.2,2.4-2.2c1.5,0,2.4,1,2.4,2.2C9.7,7.9,8.8,8.9,7.3,8.9z
		 M9.5,23.6H5.2V10.7h4.3V23.6z M24.9,23.6h-4.3v-6.9c0-1.7-0.6-2.9-2.2-2.9c-1.2,0-1.9,0.8-2.2,1.6c-0.1,0.3-0.1,0.7-0.1,1.1v7.2
		h-4.3c0.1-11.7,0-12.9,0-12.9h4.3v1.9h0c0.6-0.9,1.6-2.2,3.9-2.2c2.8,0,4.9,1.9,4.9,5.8V23.6z"/>
</g>
</svg>
