<?xml version="1.0" encoding="utf-8"?>
<!-- Generator: Adobe Illustrator 19.0.0, SVG Export Plug-In . SVG Version: 6.00 Build 0)  -->
<svg version="1.1" id="Layer_1" xmlns="http://www.w3.org/2000/svg" xmlns:xlink="http://www.w3.org/1999/xlink" x="0px" y="0px"
	 viewBox="230.1 127.5 151.2 59.2" style="enable-background:new 230.1 127.5 151.2 59.2;" xml:space="preserve">
<style type="text/css">
	.st0{fill:#0A415B;}
	.st1{fill:#29B473;}
	.st2{fill:#FFFFFF;}
</style>
<g id="XMLID_26_">
	<g id="XMLID_2860_">
		<rect id="XMLID_2931_" x="362.8" y="165.2" class="st0" width="5.1" height="7.4"/>
		<rect id="XMLID_2930_" x="362.8" y="157.7" class="st0" width="5.1" height="7.4"/>
		<rect id="XMLID_2929_" x="356.9" y="167.5" class="st0" width="6.6" height="5.1"/>
		<rect id="XMLID_2928_" x="356.9" y="157.7" class="st0" width="6.6" height="5.1"/>
		<rect id="XMLID_2927_" x="352.6" y="165.2" class="st0" width="5.1" height="7.4"/>
		<rect id="XMLID_2926_" x="352.6" y="157.7" class="st0" width="5.1" height="7.4"/>
		<rect id="XMLID_2925_" x="346" y="167.5" class="st0" width="5.1" height="5.1"/>
		<rect id="XMLID_2924_" x="340.1" y="167.5" class="st0" width="6.6" height="5.1"/>
		<rect id="XMLID_2923_" x="335.8" y="165.1" class="st0" width="5.1" height="7.5"/>
		<rect id="XMLID_2922_" x="335.8" y="157.6" class="st0" width="5.1" height="7.5"/>
		<rect id="XMLID_2921_" x="351.1" y="151.5" class="st0" width="9.1" height="5"/>
		<rect id="XMLID_2920_" x="360.2" y="151.5" class="st0" width="7.7" height="5"/>
		<rect id="XMLID_2919_" x="362.8" y="145.8" class="st0" width="5.1" height="6.4"/>
		<rect id="XMLID_2918_" x="352.6" y="141.5" class="st0" width="7.6" height="5.1"/>
		<rect id="XMLID_2917_" x="360.2" y="141.5" class="st0" width="7.7" height="5.1"/>
		<rect id="XMLID_2916_" x="346" y="148.9" class="st0" width="5.1" height="7.5"/>
		<rect id="XMLID_2915_" x="346" y="141.5" class="st0" width="5.1" height="7.5"/>
		<rect id="XMLID_2885_" x="340.1" y="141.5" class="st0" width="6.6" height="5.1"/>
		<rect id="XMLID_2862_" x="335.8" y="148.9" class="st0" width="5.1" height="7.5"/>
		<rect id="XMLID_2861_" x="335.8" y="141.5" class="st0" width="5.1" height="7.5"/>
	</g>
	<g id="XMLID_2856_">
		<path id="XMLID_2857_" class="st1" d="M322.1,156.4c0.4-16,13.5-28.9,29.6-28.9s29.2,12.9,29.6,28.9h-5.1
			c-0.4-13.2-11.2-23.8-24.5-23.8s-24.1,10.6-24.5,23.8H322.1z M327.2,157.7c0.3,13.2,11.2,23.9,24.5,23.9s24.1-10.6,24.5-23.9h5.1
			c-0.3,16-13.5,29-29.6,29s-29.3-12.9-29.6-29H327.2z"/>
	</g>
	<g id="XMLID_2846_">
		<path id="XMLID_2852_" class="st0" d="M233.4,169.3c-2.3,0-3.4-1.2-3.3-3.7V163h9.2v-7c0.2-2.4,1.5-3.7,3.7-3.8h15.4v12.3
			c0,1.6-0.4,2.8-1.3,3.6c-0.8,0.8-2,1.2-3.5,1.2H233.4z M249.2,144.3c0.5,0,1,0.1,1.5,0.3s0.9,0.5,1.2,0.8s0.6,0.7,0.8,1.2
			s0.3,1,0.3,1.5s-0.1,1-0.3,1.5s-0.5,0.9-0.8,1.2s-0.7,0.6-1.2,0.8s-1,0.3-1.5,0.3s-1-0.1-1.5-0.3s-0.9-0.5-1.2-0.8
			s-0.6-0.8-0.8-1.2c-0.2-0.5-0.3-1-0.3-1.5s0.1-1,0.3-1.5s0.5-0.9,0.8-1.2s0.8-0.6,1.2-0.8C248.1,144.4,248.6,144.3,249.2,144.3z
			 M252,158h-6v4.9h6"/>
		<path id="XMLID_2850_" class="st0" d="M261.7,152.2h19.1V163h3.2v6.3h-18.5c-0.6,0-1.1-0.1-1.6-0.3s-0.9-0.5-1.3-0.9
			c-0.3-0.4-0.6-0.6-0.7-1.2c-0.2-0.5-0.2-0.9-0.2-1.6V163h11.7v-4.5h-8c-0.5,0-1-0.1-1.5-0.3c-0.5-0.1-0.8-0.4-1.2-0.7
			c-0.3-0.3-0.6-0.7-0.8-1.2c-0.2-0.6-0.3-1.3-0.3-2.1L261.7,152.2L261.7,152.2z"/>
		<path id="XMLID_2847_" class="st0" d="M287,156c0.3-2.4,1.5-3.7,3.7-3.8h3.7v3.8c1.4-2.5,3.5-3.8,6.4-3.8h15.9v11.6
			c0,2.9-1.4,5.3-4.8,5.5h-28.3V163h3.3L287,156z M310.6,163v-4.6h-9.8c-1.1,0-1.9,0.2-3.5,1.2c-1.6,0.9-2.5,2.6-2.8,3.3L310.6,163z
			"/>
	</g>
	<g id="XMLID_2932_">
		<path id="XMLID_2933_" class="st1" d="M232,181.5v-1.4h2.1v1.4H232z"/>
		<path id="XMLID_2935_" class="st1" d="M238.3,180.4c0,0.3,0,0.7-0.1,1.1h-4.6v-1.4h3.5c-0.1-0.3-0.3-0.6-0.5-0.9v-0.1
			c0,0,0,0-0.1-0.1c0,0,0,0-0.1-0.1v-0.1l1-1.2l0.2,0.3C238.1,178.8,238.3,179.6,238.3,180.4z M235.8,183l-0.9,0.9L234,183l0.9-0.9
			L235.8,183z M236.8,183.9l-0.9-0.9l0.9-0.9l0.9,0.9L236.8,183.9z"/>
		<path id="XMLID_3004_" class="st1" d="M241.3,181.4c0,0.3-0.1,0.6-0.2,0.8c-0.1,0.3-0.3,0.6-0.5,0.9c-0.2,0.3-0.5,0.7-0.8,1
			l-1.2-1c0.3-0.2,0.5-0.4,0.7-0.6c0.2-0.2,0.3-0.4,0.5-0.7c0.1-0.2,0.2-0.4,0.3-0.7c0.1-0.2,0.1-0.4,0.2-0.6
			c-0.1-0.3-0.2-0.6-0.3-0.8c-0.1-0.3-0.3-0.6-0.5-0.9l1-1.3c0.6,1.2,0.9,2.3,0.9,3.2C241.3,180.9,241.3,181.1,241.3,181.4z"/>
		<path id="XMLID_3006_" class="st1" d="M244.6,177.7c0.2,0.1,0.3,0.2,0.5,0.4c0.1,0.2,0.2,0.3,0.3,0.6c0.1,0.2,0.1,0.4,0.2,0.7
			c0,0.2,0.1,0.4,0.1,0.6c0,0.2,0,0.4,0,0.5c0,0.3,0,0.6-0.1,0.9c0,0.3-0.1,0.6-0.2,0.9c-0.1,0.3-0.3,0.6-0.5,1
			c-0.2,0.3-0.4,0.6-0.7,0.9l-1.2-1.1c0.2-0.2,0.4-0.4,0.6-0.5c0.1-0.1,0.2-0.3,0.4-0.5c0.1-0.1,0.2-0.3,0.3-0.4l0.2-0.4
			c-0.2,0-0.4,0-0.7,0c-0.2,0-0.5,0-0.7-0.1c-0.2,0-0.4-0.1-0.6-0.2c-0.2-0.1-0.3-0.2-0.3-0.3s0-0.3,0-0.5s0-0.4,0.1-0.7
			c0-0.2,0.1-0.5,0.3-0.7c0.1-0.3,0.2-0.5,0.4-0.7c0.1-0.2,0.3-0.4,0.5-0.5s0.4-0.2,0.6-0.2C244.2,177.6,244.4,177.6,244.6,177.7z
			 M243.3,180.1c0.1,0.1,0.2,0.1,0.2,0.1c0.1,0,0.3,0,0.4,0c0.2,0,0.4,0,0.6,0c0-0.1,0-0.3-0.1-0.4c0-0.2-0.1-0.3-0.1-0.4
			c-0.1-0.1-0.1-0.2-0.2-0.3c-0.1-0.1-0.2-0.1-0.3-0.1s-0.2,0-0.3,0.1s-0.2,0.2-0.3,0.3s-0.1,0.2-0.2,0.4c0,0.1,0,0.2,0,0.3
			C243.2,180.1,243.2,180.1,243.3,180.1z"/>
		<path id="XMLID_3009_" class="st1" d="M248.9,181.5h-2.5v-5.2l1.3-0.8v4.7h1.2V181.5z"/>
		<path id="XMLID_3011_" class="st1" d="M252,181.5h-3.9v-1.4h2c-0.1-0.2-0.3-0.6-0.7-1.3l1.1-1.2c0.5,0.9,0.7,1.7,0.8,2.5h0.8v1.4
			H252z M249.7,177.4l-0.9-0.9l0.9-0.9l0.9,0.9L249.7,177.4z"/>
		<path id="XMLID_3014_" class="st1" d="M254.9,180.1c0,0,0-0.1,0-0.2c0-0.1,0-0.2-0.1-0.2c0,0,0-0.1-0.1-0.2v-0.1
			c-0.4,0.1-0.8,0.1-1.1,0.1c-0.6,0-1-0.1-1.3-0.2c-0.3-0.1-0.4-0.3-0.4-0.6c0-0.4,0.1-0.7,0.3-1c0.1-0.3,0.3-0.6,0.5-0.8
			s0.4-0.4,0.6-0.5c0.2-0.1,0.4-0.2,0.6-0.2c0.2,0,0.4,0,0.6,0.1c0.2,0.1,0.3,0.2,0.5,0.4c0.1,0.2,0.3,0.4,0.4,0.7
			c0.1,0.3,0.2,0.6,0.3,0.9c0.1,0.3,0.2,0.7,0.2,1c0.1,0.3,0.1,0.7,0.1,1v0.3v0.3c0,0.1,0,0.2,0,0.3c0,0.2,0,0.3,0,0.3h-4.8v-1.4
			L254.9,180.1L254.9,180.1z M254.5,178.4c-0.1-0.3-0.2-0.5-0.4-0.6c-0.1-0.1-0.2-0.2-0.4-0.2c-0.1,0-0.2,0-0.3,0.1
			s-0.2,0.2-0.3,0.3s-0.1,0.2-0.2,0.3c0,0.1,0,0.1,0,0.1C253.2,178.5,253.7,178.5,254.5,178.4z M254.9,174.9l-0.9,0.9l-0.9-0.9
			l0.9-0.9L254.9,174.9z"/>
		<path id="XMLID_3018_" class="st1" d="M257.8,181.1l-0.3,0.3l-0.1,0.1l-0.1,0.1l-0.4-0.3l-0.4-0.3l0.1-0.1l0.4-0.4
			c0.1-0.1,0.1-0.1,0.2-0.2l0.1,0.1l0.6,0.6L257.8,181.1z"/>
		<path id="XMLID_3065_" class="st1" d="M231.4,181.1l-0.3,0.3l-0.1,0.1l-0.1,0.1l-0.4-0.3l-0.4-0.3l0.1-0.1l0.4-0.4
			c0.1-0.1,0.1-0.1,0.2-0.2l0.1,0.1l0.6,0.6L231.4,181.1z"/>
		<path id="XMLID_3020_" class="st1" d="M258.4,181.5v-1.4h1.8v1.4H258.4z"/>
		<path id="XMLID_3022_" class="st1" d="M260.5,180c0-0.1,0-0.1,0-0.1v-0.2c0-0.1,0-0.1,0-0.1c0-0.3,0.1-0.6,0.2-0.8
			c0.2-0.3,0.4-0.5,0.7-0.6l-0.2-0.1c0,0-0.1-0.1-0.1-0.2c0-0.1-0.1-0.1-0.1-0.2c0-0.1,0-0.2,0-0.3l0.6-0.6c0,0.1,0,0.3,0.1,0.3
			c0.1,0.1,0.2,0.2,0.4,0.2c0.2,0.1,0.3,0.1,0.4,0.2l0.4,0.1l0.7,0.2c0.2,0.1,0.5,0.2,0.8,0.3c0.2,0.1,0.5,0.3,0.7,0.5
			s0.4,0.4,0.5,0.7c0.1,0.4,0.2,0.7,0.2,1c0,0.2,0,0.4-0.1,0.6c0,0.2-0.1,0.4-0.2,0.6c-0.1,0.2-0.1,0.3-0.2,0.5
			c-0.1,0.1-0.1,0.3-0.2,0.4c-0.1-0.1-0.2-0.2-0.3-0.4c-0.1-0.1-0.2-0.2-0.3-0.3c-0.1-0.1-0.3-0.2-0.5-0.2c-0.2-0.1-0.5-0.1-0.8-0.1
			h-3.3V180L260.5,180C260.5,180.1,260.5,180.1,260.5,180z M261.9,178.8c-0.1,0-0.2,0.1-0.2,0.2c-0.1,0.1-0.1,0.2-0.2,0.2
			c0,0.1,0,0.2,0,0.3s0,0.2,0,0.3s0.1,0.1,0.1,0.2c0,0.1,0.1,0.1,0.1,0.1h0.1c0.2,0,0.3-0.1,0.4-0.2c0.1-0.1,0.2-0.4,0.2-0.7v-0.1
			c0-0.1,0-0.1,0-0.2c0-0.1-0.1-0.1-0.1-0.2c0,0-0.1-0.1-0.2-0.1C262,178.7,261.9,178.8,261.9,178.8z M263.6,180.2
			c0.1,0,0.2,0.1,0.3,0.1c0.1,0,0.2,0.1,0.2,0.2l0.2,0.2c0-0.2,0-0.4,0-0.5s-0.1-0.3-0.2-0.5c-0.1-0.1-0.2-0.3-0.3-0.4
			c-0.1-0.1-0.3-0.2-0.4-0.3c0.1,0.2,0.1,0.3,0,0.5c0,0.3-0.1,0.5-0.2,0.6C263.4,180.1,263.5,180.1,263.6,180.2z"/>
		<path id="XMLID_3026_" class="st1" d="M269,181.5h-2.5v-5.2l1.3-0.8v4.7h1.2V181.5z"/>
		<path id="XMLID_3049_" class="st1" d="M268.1,180.1h3.6c0-0.1-0.1-0.3-0.2-0.4c-0.1-0.1-0.3-0.2-0.5-0.3s-0.4-0.2-0.6-0.3
			s-0.4-0.1-0.7-0.1c-0.4,0-0.7-0.1-0.9-0.1v-1.1c0-0.2,0-0.3,0.1-0.4c0-0.1,0.1-0.2,0.2-0.3s0.1-0.2,0.2-0.2
			c0.2-0.1,0.3-0.2,0.3-0.2l2-1.3c0.2-0.1,0.4-0.2,0.6-0.2s0.3,0.1,0.4,0.2c0.1,0.1,0.2,0.3,0.2,0.4v0.9c-0.1,0-0.2-0.1-0.2-0.1
			c-0.1,0-0.1,0-0.2,0c0,0-0.1,0-0.2,0.1c-0.1,0-0.1,0.1-0.2,0.1l-1.7,0.9c0.3,0.1,0.6,0.2,0.9,0.3s0.5,0.3,0.7,0.5s0.4,0.5,0.6,0.7
			c0.1,0.3,0.3,0.6,0.3,0.9h1v1.4h-5.7L268.1,180.1L268.1,180.1z"/>
		<path id="XMLID_3051_" class="st1" d="M272.9,180.1h1.8c0-0.1-0.2-0.4-0.4-0.9l1-1.1c0.1,0.4,0.3,0.9,0.4,1.4l0.2,0.6h1.4
			c-0.1-0.3-0.3-0.6-0.5-0.9v-0.1c0,0,0,0-0.1-0.1c0,0,0,0,0-0.1v-0.1l1-1.2l0.2,0.3c0.4,0.7,0.6,1.4,0.6,2.1h1.1
			c-0.1-0.3-0.3-0.6-0.5-0.9V179c0,0,0,0-0.1-0.1c0,0,0,0-0.1-0.1v-0.1l1-1.2l0.2,0.3c0.4,0.8,0.6,1.5,0.6,2.1h0.7v1.4h-8.6
			L272.9,180.1L272.9,180.1z M277.3,176.5l-0.9,0.9l-0.9-0.9l0.9-0.9L277.3,176.5z M278.3,175.2l-0.9,0.9l-0.9-0.9l0.9-0.9
			L278.3,175.2z M278.5,177.5l-0.9-0.9l0.9-0.9l0.9,0.9L278.5,177.5z"/>
		<path id="XMLID_3056_" class="st1" d="M284.7,180.4c0,0.3,0,0.7-0.1,1.1h-3.7v-1.4h2.6c-0.1-0.3-0.3-0.6-0.5-0.9v-0.1
			c0,0,0,0-0.1-0.1c0,0,0,0-0.1-0.1v-0.1l1-1.2l0.2,0.3C284.5,178.8,284.7,179.6,284.7,180.4z M282.8,177.5l-0.9-0.9l1-1l0.9,1
			L282.8,177.5z"/>
		<path id="XMLID_3059_" class="st1" d="M286.8,181l-1.3,0.8V176l1.3-0.8V181z"/>
		<path id="XMLID_3061_" class="st1" d="M290.2,177.9c0.2,0.2,0.3,0.5,0.4,0.7s0.2,0.5,0.3,0.9c0.1,0.3,0.1,0.7,0.1,1s0,0.6-0.1,1
			h-2.7c-0.3,0-0.6-0.1-0.7-0.2c-0.2-0.2-0.2-0.4-0.2-0.6c0-0.3,0.1-0.6,0.4-1.1l0,0v0.1c0,0,0,0.1,0.1,0.2c0,0,0.1,0.1,0.2,0.1
			s0.1,0.1,0.2,0.1h1.7c0-0.2-0.1-0.3-0.2-0.4c-0.1-0.2-0.2-0.3-0.3-0.4c-0.1-0.1-0.2-0.3-0.3-0.4c-0.1-0.1-0.2-0.2-0.4-0.4l0.8-1.4
			l0.2,0.3L290.2,177.9z"/>
		<path id="XMLID_3063_" class="st1" d="M292.8,181.1l-0.3,0.3l-0.1,0.1l-0.1,0.1l-0.4-0.3l-0.4-0.3l0.1-0.1l0.4-0.4
			c0.1-0.1,0.1-0.1,0.2-0.2l0.1,0.1l0.6,0.6L292.8,181.1z"/>
		<path id="XMLID_3067_" class="st1" d="M299.4,181.5h-5.8v-1.4h3.9c-0.1-0.2-0.3-0.6-0.7-1.3l1.1-1.2c0.5,0.9,0.7,1.7,0.8,2.5h0.7
			V181.5z M297.1,176.4l-0.9,0.9l-0.9-0.9l0.9-0.9L297.1,176.4z M298.1,177.3l-0.9-0.9l0.9-0.9l0.9,0.9L298.1,177.3z"/>
		<path id="XMLID_3071_" class="st1" d="M301.8,177.4c0.3,0,0.6,0,0.8,0.1c0.2,0,0.5,0.1,0.6,0.2c0.2,0.1,0.3,0.2,0.4,0.4
			s0.2,0.4,0.2,0.6c0,0.4-0.2,0.9-0.6,1.3h1.5v1.4h-2.5c-0.2,0-0.4-0.1-0.5-0.2c-0.2,0.1-0.3,0.2-0.5,0.2h-2.9V180h2.4
			c-0.1-0.1-0.2-0.3-0.3-0.4c-0.1-0.1-0.1-0.2-0.2-0.2c-0.1-0.1-0.2-0.2-0.3-0.3c-0.1-0.1-0.3-0.2-0.4-0.2c-0.2-0.1-0.3-0.1-0.6-0.1
			l0.7-1.2C300.5,177.5,301.2,177.4,301.8,177.4z M301.5,179.2c0,0,0.1,0.1,0.2,0.2c0.1,0.1,0.2,0.2,0.2,0.3
			c0.4-0.3,0.6-0.6,0.6-0.8s-0.3-0.3-0.7-0.3c-0.1,0-0.2,0-0.4,0c-0.2,0-0.3,0-0.4,0C301.2,178.8,301.4,179,301.5,179.2z"/>
		<path id="XMLID_3074_" class="st1" d="M307.8,181.5h-3.9v-1.4h2c-0.1-0.2-0.3-0.6-0.7-1.3l1.1-1.2c0.5,0.9,0.7,1.7,0.8,2.5h0.8
			L307.8,181.5L307.8,181.5z M305.5,177.4l-0.9-0.9l0.9-0.9l0.9,0.9L305.5,177.4z"/>
		<path id="XMLID_3077_" class="st1" d="M309.9,180.1c0.3-0.3,0.8-0.7,1.3-1.1c0.7-0.6,1.4-1.1,2-1.3c0.2-0.1,0.5-0.2,0.7-0.2
			c0.3,0,0.5,0.1,0.7,0.2c0.1,0.1,0.2,0.1,0.4,0.3c0.1,0.1,0.2,0.3,0.3,0.4c0.1,0.2,0.2,0.4,0.2,0.6c0.1,0.2,0.1,0.5,0.1,0.8
			c0,0.1,0,0.2,0,0.3l-0.1,0.4l-0.1,0.5c0,0.2-0.1,0.4-0.1,0.5h-8.6v-1.4h1.8c0-0.1-0.2-0.4-0.4-0.9l1-1.1c0.1,0.4,0.3,0.9,0.4,1.4
			C309.7,179.6,309.7,179.8,309.9,180.1L309.9,180.1z M314.5,179.5c-0.1-0.1-0.2-0.3-0.3-0.3c-0.1-0.1-0.2-0.1-0.3-0.2
			c-0.1,0-0.2,0-0.3,0c-0.1,0-0.2,0-0.4,0c-0.1,0-0.2,0.1-0.4,0.2c-0.2,0.1-0.3,0.2-0.5,0.3s-0.4,0.3-0.8,0.6h3.2
			C314.6,179.9,314.5,179.7,314.5,179.5z"/>
	</g>
	<g id="XMLID_1_">
		<path id="XMLID_2_" class="st1" d="M285.7,144.9c-0.1,0-0.1,0-0.1-0.1s-0.1-0.1-0.1-0.2c0-0.1,0-0.2,0-0.2v-0.2
			c0-0.3,0.1-0.6,0.2-0.9c0.1-0.3,0.2-0.6,0.3-0.9c0.1-0.3,0.3-0.6,0.5-0.9c0.2-0.3,0.4-0.5,0.7-0.7c0.2-0.2,0.5-0.4,0.8-0.5
			s0.6-0.2,0.9-0.2c0.2,0,0.4,0.1,0.6,0.3s0.3,0.5,0.5,0.8c0.1,0.3,0.2,0.6,0.3,1c0.1,0.4,0.1,0.7,0.2,1h1.3v1.7h-2.5
			c0-0.2-0.1-0.6-0.2-1.1l-0.3,1.1L285.7,144.9L285.7,144.9z M287.4,142.2c-0.2,0.2-0.4,0.6-0.6,1h2l-0.2-0.7c0-0.1-0.1-0.3-0.2-0.4
			c0-0.1-0.1-0.2-0.2-0.2s-0.1-0.1-0.2-0.1C287.9,141.8,287.6,141.9,287.4,142.2z"/>
		<path id="XMLID_5_" class="st1" d="M295.3,143.5c0,0.4,0,0.9-0.1,1.3h-4.5v-1.7h3.1c-0.1-0.3-0.3-0.7-0.6-1.1v-0.1
			c0,0,0-0.1-0.1-0.1c0,0,0,0-0.1-0.1v-0.1l1.3-1.5l0.2,0.4C295.1,141.6,295.3,142.6,295.3,143.5z M293,140l-1.1-1.1l1.2-1.2
			l1.1,1.2L293,140z"/>
		<path id="XMLID_8_" class="st1" d="M299.4,144.9h-3v-6.3l1.6-1v5.7h1.4V144.9z"/>
		<path id="XMLID_10_" class="st1" d="M300,142.2c0.1-0.3,0.3-0.7,0.5-0.9c0.2-0.3,0.4-0.5,0.7-0.7c0.3-0.2,0.5-0.3,0.8-0.3
			s0.6,0.1,0.8,0.2c0.3,0.1,0.5,0.3,0.6,0.5c0.2,0.2,0.3,0.4,0.4,0.7s0.2,0.6,0.3,0.8c0.1,0.3,0.1,0.5,0.1,0.7s0,0.4,0,0.6
			c0,0.5-0.1,0.9-0.2,1.3c0,0.2-0.1,0.3-0.2,0.5c-0.2-0.2-0.4-0.4-0.7-0.5c-0.2-0.1-0.5-0.2-0.7-0.2s-0.4-0.1-0.7-0.1
			c-0.1,0-0.4,0-0.6,0h-3v-1.7h1.4C299.8,142.9,299.9,142.5,300,142.2z M301.7,143.2c0.2,0,0.4,0,0.6,0.1c0.2,0,0.3,0.1,0.5,0.2
			c0.2,0.1,0.3,0.2,0.4,0.3c0-0.3,0-0.6-0.1-0.8s-0.2-0.4-0.3-0.5c-0.1-0.1-0.3-0.2-0.4-0.3s-0.2-0.1-0.4-0.1
			c-0.2,0-0.3,0.1-0.5,0.3s-0.3,0.4-0.4,0.7C301.3,143.2,301.5,143.2,301.7,143.2z"/>
		<path id="XMLID_13_" class="st1" d="M308.3,144.9h-3v-6.3l1.6-1v5.7h1.4V144.9z"/>
		<path id="XMLID_15_" class="st1" d="M312,142L312,142c-0.1-0.1-0.1-0.1-0.1-0.2c0,0,0,0-0.1-0.1v-0.1l1.3-1.5l0.2,0.4
			c0.4,0.8,0.7,1.7,0.8,2.6h1.3c-0.1-0.3-0.3-0.7-0.6-1.1v-0.1c0,0,0-0.1-0.1-0.1c0,0,0,0-0.1-0.1v-0.1l1.3-1.5l0.2,0.4
			c0.5,1.1,0.8,2,0.8,2.9c0,0.4,0,0.9-0.1,1.3h-9.5V143h2.2c-0.1-0.2-0.2-0.5-0.5-1.1l1.2-1.3c0.2,0.5,0.3,1.1,0.5,1.7l0.2,0.7h1.7
			C312.5,142.8,312.3,142.5,312,142z"/>
	</g>
	
		<rect id="XMLID_439_" x="329.2" y="175.6" transform="matrix(-0.7149 0.6993 -0.6993 -0.7149 692.8757 69.9987)" class="st2" width="5.9" height="1.3"/>
</g>
</svg>
