<?xml version="1.0" encoding="utf-8"?>
<!-- Generator: Adobe Illustrator 21.1.0, SVG Export Plug-In . SVG Version: 6.00 Build 0)  -->
<svg version="1.1" id="Layer_1" xmlns="http://www.w3.org/2000/svg" xmlns:xlink="http://www.w3.org/1999/xlink" x="0px" y="0px"
	 viewBox="0 0 25 25" style="enable-background:new 0 0 25 25;" xml:space="preserve">
<style type="text/css">
	.st0{fill:#4D4D4D;}
</style>
<path id="XMLID_1890_" class="st0" d="M23.2,10.7h-8.9V1.8c0-1-0.8-1.8-1.8-1.8c-1,0-1.8,0.8-1.8,1.8v8.9H1.8c-1,0-1.8,0.8-1.8,1.8
	c0,1,0.8,1.8,1.8,1.8h8.9v8.9c0,1,0.8,1.8,1.8,1.8c1,0,1.8-0.8,1.8-1.8v-8.9h8.9c1,0,1.8-0.8,1.8-1.8C25,11.5,24.2,10.7,23.2,10.7
	L23.2,10.7z M23.2,10.7"/>
</svg>
