<?xml version="1.0" encoding="utf-8"?>
<!-- Generator: Adobe Illustrator 19.0.0, SVG Export Plug-In . SVG Version: 6.00 Build 0)  -->
<svg version="1.1" id="Layer_1" xmlns="http://www.w3.org/2000/svg" xmlns:xlink="http://www.w3.org/1999/xlink" x="0px" y="0px"
	 viewBox="0 0 232 57" style="enable-background:new 0 0 232 57;" xml:space="preserve">
<style type="text/css">
	.st0{fill:#29ABE2;}
	.st1{fill:#56ACE0;}
	.st2{fill:none;stroke:#29ABE2;stroke-width:3;stroke-miterlimit:10;stroke-dasharray:8,8;}
</style>
<g id="XMLID_3104_">
	<path id="XMLID_3113_" class="st0" d="M201.9,31.3c8.3,0,15-6.7,15-15c0-8.3-6.7-15-15-15c-8.3,0-15,6.7-15,15
		S193.6,31.3,201.9,31.3L201.9,31.3z M201.9,5.3c6.1,0,11.1,5,11.1,11s-5,11-11.1,11c-6.1,0-11-5-11-11S195.8,5.3,201.9,5.3
		L201.9,5.3z M201.9,5.3"/>
	<path id="XMLID_3109_" class="st0" d="M175.9,55h52.1c1.1,0,2-1,2-2.1c0-10.4-8.4-18.9-18.8-18.9h-18.4c-10.4,0-18.8,8.5-18.8,18.9
		C174,54,174.8,55,175.9,55L175.9,55z M192.8,38h18.4c7.6,0,13.8,6,14.7,13h-47.9C179,44,185.2,38,192.8,38L192.8,38z M192.8,37.9"
		/>
</g>
<g id="XMLID_924_">
	<path id="XMLID_930_" class="st1" d="M28.6,2.4C14.4,2.4,2.8,14,2.8,28.3s11.6,25.9,25.9,25.9s25.9-11.6,25.9-25.9
		S42.9,2.4,28.6,2.4z M28.6,51.4C15.9,51.4,5.5,41,5.5,28.3S15.9,5.1,28.6,5.1s23.1,10.4,23.1,23.1S41.4,51.4,28.6,51.4z"/>
	<path id="XMLID_925_" class="st1" d="M28.6,8.5c-10.9,0-19.7,8.9-19.7,19.7S17.7,48,28.6,48s19.7-8.9,19.7-19.7S39.5,8.5,28.6,8.5z
		 M28.6,11.3c8.9,0,16.3,6.7,17,15.7H35.1c0.5-3,0.6-7.4,0.6-8.5c0-0.5-0.2-1-0.7-1.2c-0.4-0.2-1-0.3-1.4,0c-1.5,0.9-8.9,5.6-10.3,8
		C23,25.8,22.8,27,22.6,27h-11C12.4,18,19.7,11.3,28.6,11.3z M32.9,20.9c-0.2,3.7-0.7,8-1.3,9.1c-0.9,1.6-3,2.2-4.6,1.2
		c-1.6-0.9-2.2-3-1.2-4.6C26.3,25.5,29.8,23,32.9,20.9z M28.6,45.7c-8.9,0-16.3-6.7-17-15.7h11c0.4,1,1.4,2.9,2.9,3.8
		c1,0.6,2,0.7,3.1,0.7c2.1,0,4.2-1,5.3-2.9c0.2-0.4,0.4-0.6,0.6-1.6h11C44.9,39,37.5,45.7,28.6,45.7z"/>
</g>
<g id="XMLID_483_">
	<g id="XMLID_136_">
		<line id="XMLID_139_" class="st2" x1="62.3" y1="35.5" x2="157.3" y2="35.5"/>
		<g id="XMLID_137_">
			<polygon id="XMLID_138_" class="st0" points="155.3,43 168.8,35.3 155.3,27.5 			"/>
		</g>
	</g>
</g>
</svg>
