<?xml version="1.0" encoding="utf-8"?>
<!-- Generator: Adobe Illustrator 19.0.0, SVG Export Plug-In . SVG Version: 6.00 Build 0)  -->
<svg version="1.1" id="Layer_1" xmlns="http://www.w3.org/2000/svg" xmlns:xlink="http://www.w3.org/1999/xlink" x="0px" y="0px"
	 viewBox="0 0 208.9 61.6" style="enable-background:new 0 0 208.9 61.6;" xml:space="preserve">
<style type="text/css">
	.st0{fill:#29ABE2;}
	.st1{fill:#56ACE0;}
	.st2{fill:#CCCCCC;}
</style>
<g id="XMLID_428_">
	<path id="XMLID_21_" class="st0" d="M41.4,9.3v18h-18v-18H41.4 M45.4,5.3h-26v26h26V5.3L45.4,5.3z"/>
</g>
<g id="XMLID_438_">
	<path id="XMLID_17_" class="st0" d="M113.4,6.3v21h-21v-21H113.4 M117.4,2.3h-29v29h29V2.3L117.4,2.3z"/>
</g>
<g id="XMLID_439_">
	<path id="XMLID_15_" class="st0" d="M184.4,9.3v18h-18v-18H184.4 M188.4,5.3h-26v26h26V5.3L188.4,5.3z"/>
</g>
<rect id="XMLID_440_" x="156.4" y="37.3" class="st1" width="40" height="5"/>
<rect id="XMLID_443_" x="83.4" y="37.3" class="st1" width="40" height="5"/>
<rect id="XMLID_444_" x="12.4" y="37.3" class="st1" width="41" height="5"/>
<rect id="XMLID_445_" x="145.4" y="47.3" class="st2" width="62" height="5"/>
<rect id="XMLID_446_" x="72.4" y="47.3" class="st2" width="61" height="5"/>
<rect id="XMLID_453_" x="1.4" y="47.3" class="st2" width="62" height="5"/>
<rect id="XMLID_454_" x="145.4" y="55.3" class="st2" width="62" height="5"/>
<rect id="XMLID_467_" x="72.4" y="55.3" class="st2" width="61" height="5"/>
<rect id="XMLID_468_" x="1.4" y="55.3" class="st2" width="62" height="5"/>
</svg>
