<?xml version="1.0" encoding="iso-8859-1"?>
<!-- Generator: Adobe Illustrator 19.1.1, SVG Export Plug-In . SVG Version: 6.00 Build 0)  -->
<svg version="1.1" id="Layer_1" xmlns="http://www.w3.org/2000/svg" xmlns:xlink="http://www.w3.org/1999/xlink" x="0px" y="0px"
	 viewBox="0 0 53.092 50.758" style="enable-background:new 0 0 53.092 50.758;" xml:space="preserve">
<g id="XMLID_2409_">
	<g id="XMLID_2421_">
		<defs>
			<rect id="XMLID_2422_" x="2" y="0.602" width="49.951" height="49.554"/>
		</defs>
		<clipPath id="XMLID_2_">
			<use xlink:href="#XMLID_2422_"  style="overflow:visible;"/>
		</clipPath>
		<path id="XMLID_2423_" style="clip-path:url(#XMLID_2_);fill:#B4B4B4;" d="M27.443,49.836l2.492-1.027
			c1.332-0.549,1.963-2.085,1.414-3.407l-0.641-1.546c1.251-0.926,2.339-2.024,3.275-3.275l1.546,0.641
			c0.641,0.264,1.353,0.264,1.993,0c0.641-0.265,1.15-0.773,1.414-1.414l1.037-2.492c0.549-1.332-0.081-2.858-1.414-3.407
			l-2.289-0.946c-0.519-0.214-1.098,0.03-1.312,0.549c-0.213,0.519,0.031,1.099,0.549,1.312l2.289,0.946
			c0.305,0.122,0.447,0.478,0.326,0.783l-1.037,2.492c-0.061,0.143-0.173,0.264-0.326,0.325c-0.142,0.061-0.305,0.061-0.457,0
			l-2.289-0.946c-0.448-0.183-0.956-0.031-1.221,0.366c-1.027,1.546-2.329,2.848-3.875,3.875c-0.396,0.264-0.559,0.783-0.376,1.22
			l0.946,2.289c0.122,0.305-0.02,0.651-0.325,0.783l-2.492,1.028c-0.142,0.061-0.305,0.061-0.457,0
			c-0.143-0.061-0.265-0.173-0.326-0.325l-0.946-2.289c-0.183-0.448-0.651-0.702-1.129-0.6c-1.81,0.367-3.661,0.356-5.472,0
			c-0.468-0.091-0.946,0.163-1.129,0.6l-0.946,2.289c-0.122,0.305-0.478,0.447-0.783,0.325l-2.492-1.037
			c-0.143-0.061-0.265-0.173-0.326-0.325c-0.061-0.143-0.061-0.306,0-0.458l0.946-2.289c0.183-0.448,0.03-0.956-0.366-1.221
			c-1.546-1.027-2.848-2.329-3.875-3.875c-0.265-0.397-0.783-0.56-1.221-0.376L5.86,39.349c-0.152,0.061-0.305,0.061-0.457,0
			c-0.143-0.061-0.265-0.173-0.326-0.325L4.05,36.532c-0.061-0.142-0.061-0.305,0-0.457c0.061-0.143,0.173-0.265,0.325-0.326
			l2.289-0.946c0.447-0.183,0.692-0.651,0.6-1.129c-0.366-1.811-0.355-3.662,0-5.472c0.092-0.468-0.162-0.946-0.6-1.129
			l-2.289-0.946c-0.305-0.122-0.448-0.478-0.325-0.783l1.037-2.492c0.122-0.306,0.478-0.448,0.783-0.326l2.289,0.946
			c0.448,0.183,0.956,0.031,1.22-0.366c1.028-1.546,2.329-2.848,3.875-3.875c0.397-0.265,0.56-0.783,0.376-1.221l-0.946-2.289
			c-0.061-0.142-0.061-0.305,0-0.457c0.061-0.143,0.173-0.265,0.326-0.326l2.492-1.027c0.143-0.061,0.306-0.061,0.458,0
			c0.143,0.061,0.264,0.173,0.325,0.325l0.946,2.289c0.213,0.519,0.804,0.763,1.312,0.549c0.518-0.213,0.763-0.804,0.549-1.312
			l-0.946-2.289c-0.264-0.641-0.773-1.149-1.414-1.413c-0.325-0.133-0.661-0.204-0.997-0.204c-0.336,0-0.681,0.071-0.997,0.204
			l-2.492,1.027c-0.641,0.265-1.15,0.773-1.414,1.414c-0.265,0.641-0.265,1.353,0,1.994l0.641,1.546
			c-1.251,0.925-2.339,2.024-3.275,3.275l-1.546-0.641c-1.333-0.549-2.858,0.081-3.407,1.414l-1.048,2.492
			c-0.549,1.333,0.081,2.858,1.414,3.407l1.546,0.641c-0.224,1.536-0.224,3.092,0,4.628l-1.546,0.641
			c-0.641,0.265-1.149,0.773-1.414,1.414c-0.264,0.641-0.264,1.353,0,1.993l1.028,2.492c0.264,0.641,0.773,1.149,1.414,1.413
			c0.641,0.265,1.352,0.265,1.993,0l1.546-0.641c0.925,1.251,2.024,2.339,3.275,3.275l-0.641,1.546
			c-0.265,0.641-0.265,1.352,0,1.994c0.264,0.641,0.773,1.149,1.414,1.413l2.492,1.037c1.333,0.549,2.858-0.081,3.407-1.413
			l0.641-1.546c1.536,0.223,3.092,0.223,4.628,0l0.641,1.546c0.264,0.641,0.773,1.149,1.414,1.413
			C26.091,50.1,26.802,50.1,27.443,49.836L27.443,49.836z M27.443,49.836"/>
	</g>
	<path id="XMLID_2418_" style="fill:#B4B4B4;" d="M12.898,31.009c0.031,4.496,3.702,8.127,8.188,8.127h0.061
		c2.187-0.02,4.241-0.885,5.777-2.441c1.536-1.556,2.37-3.621,2.36-5.808c0-0.549-0.458-0.997-1.007-0.997h-0.01
		c-0.56,0-1.007,0.458-0.997,1.017c0.01,1.648-0.621,3.204-1.78,4.384c-1.16,1.18-2.706,1.831-4.354,1.841h-0.041
		c-3.387,0-6.153-2.746-6.174-6.133c-0.02-3.407,2.726-6.194,6.133-6.224c0.56,0,1.007-0.458,0.997-1.017
		c0-0.549-0.457-0.997-1.007-0.997h-0.01C16.509,22.791,12.868,26.493,12.898,31.009L12.898,31.009z M12.898,31.009"/>
	<path id="XMLID_2414_" style="fill:#B4B4B4;" d="M38.083,0.648h-1.963c-1.2,0-2.177,0.976-2.177,2.177v1.007
		c-0.976,0.265-1.912,0.651-2.787,1.16l-0.712-0.712c-0.407-0.407-0.956-0.641-1.536-0.641c-0.58,0-1.129,0.224-1.536,0.641
		l-1.383,1.384c-0.407,0.407-0.641,0.956-0.641,1.536c0,0.58,0.223,1.129,0.641,1.536l0.712,0.712
		c-0.509,0.875-0.895,1.811-1.16,2.787h-1.007c-1.2,0-2.176,0.976-2.176,2.176v1.963c0,1.2,0.976,2.177,2.176,2.177h1.007
		c0.264,0.976,0.651,1.912,1.16,2.787l-0.712,0.712c-0.407,0.407-0.641,0.956-0.641,1.536c0,0.58,0.223,1.129,0.641,1.536
		l1.383,1.383c0.407,0.407,0.956,0.641,1.536,0.641c0.58,0,1.129-0.223,1.536-0.641l0.712-0.712c0.875,0.509,1.81,0.895,2.787,1.159
		v1.007c0,1.2,0.977,2.177,2.177,2.177h1.963c1.2,0,2.177-0.977,2.177-2.177v-1.007c0.976-0.264,1.912-0.651,2.787-1.159
		l0.712,0.712c0.407,0.407,0.956,0.641,1.536,0.641c0.58,0,1.129-0.223,1.536-0.641l1.383-1.383c0.844-0.844,0.844-2.227,0-3.072
		l-0.712-0.712c0.509-0.875,0.895-1.81,1.16-2.787h1.007c1.2,0,2.176-0.976,2.176-2.177v-1.963c0-1.2-0.976-2.176-2.176-2.176H48.66
		c-0.264-0.976-0.651-1.913-1.16-2.787l0.712-0.712c0.844-0.844,0.844-2.228,0-3.072L46.83,4.279
		c-0.407-0.407-0.957-0.641-1.536-0.641c-0.58,0-1.129,0.224-1.536,0.641l-0.712,0.712c-0.875-0.509-1.81-0.895-2.787-1.16V2.825
		C40.249,1.624,39.272,0.648,38.083,0.648L38.083,0.648z M42.629,7.096c0.173,0.112,0.366,0.173,0.56,0.173
		c0.264,0,0.518-0.101,0.712-0.294l1.271-1.271c0.041-0.041,0.081-0.051,0.112-0.051c0.03,0,0.071,0.01,0.112,0.051l1.383,1.383
		c0.061,0.061,0.061,0.163,0,0.223l-1.271,1.271c-0.336,0.336-0.397,0.875-0.122,1.271c0.733,1.089,1.231,2.299,1.486,3.58
		c0.091,0.468,0.509,0.814,0.986,0.814h1.8c0.091,0,0.163,0.071,0.163,0.162v1.963c0,0.091-0.071,0.163-0.163,0.163h-1.8
		c-0.478,0-0.895,0.336-0.986,0.813c-0.254,1.282-0.753,2.492-1.486,3.58c-0.264,0.397-0.213,0.936,0.122,1.271l1.271,1.271
		c0.061,0.061,0.061,0.163,0,0.224l-1.383,1.383c-0.041,0.041-0.081,0.051-0.112,0.051c-0.031,0-0.071-0.01-0.112-0.051L43.9,23.787
		c-0.335-0.336-0.875-0.397-1.271-0.122c-1.088,0.733-2.299,1.231-3.58,1.485c-0.468,0.092-0.813,0.509-0.813,0.987v1.8
		c0,0.091-0.071,0.163-0.163,0.163h-1.963c-0.092,0-0.163-0.072-0.163-0.163v-1.8c0-0.478-0.336-0.895-0.813-0.987
		c-1.282-0.254-2.492-0.752-3.58-1.485c-0.397-0.264-0.936-0.214-1.271,0.122l-1.271,1.271c-0.041,0.041-0.081,0.051-0.112,0.051
		c-0.03,0-0.071-0.01-0.112-0.051l-1.383-1.383c-0.041-0.041-0.051-0.081-0.051-0.112c0-0.03,0.01-0.071,0.051-0.112l1.271-1.271
		c0.336-0.336,0.397-0.875,0.122-1.271c-0.733-1.088-1.231-2.298-1.486-3.58c-0.091-0.468-0.509-0.813-0.986-0.813h-1.8
		c-0.091,0-0.163-0.072-0.163-0.163v-1.963c0-0.091,0.071-0.162,0.163-0.162h1.8c0.478,0,0.895-0.336,0.986-0.814
		c0.254-1.281,0.753-2.492,1.486-3.58c0.264-0.396,0.213-0.936-0.122-1.271l-1.271-1.271c-0.041-0.04-0.051-0.081-0.051-0.112
		c0-0.03,0.01-0.071,0.051-0.112l1.383-1.383c0.041-0.041,0.081-0.051,0.112-0.051c0.031,0,0.071,0.01,0.112,0.051l1.271,1.271
		c0.335,0.335,0.875,0.396,1.271,0.122c1.088-0.732,2.299-1.231,3.58-1.485c0.468-0.091,0.813-0.509,0.813-0.986v-1.78
		c0-0.092,0.071-0.163,0.163-0.163h1.963c0.092,0,0.163,0.071,0.163,0.163v1.8c0,0.478,0.336,0.895,0.813,0.986
		C40.33,5.866,41.541,6.364,42.629,7.096L42.629,7.096z M42.629,7.096"/>
	<path id="XMLID_2410_" style="fill:#B4B4B4;" d="M31.125,15.376c0,3.296,2.685,5.981,5.981,5.981c3.295,0,5.981-2.685,5.981-5.981
		c0-3.295-2.685-5.981-5.981-5.981C33.81,9.395,31.125,12.081,31.125,15.376L31.125,15.376z M41.062,15.376
		c0,2.187-1.78,3.967-3.967,3.967c-2.187,0-3.967-1.78-3.967-3.967c0-2.187,1.78-3.967,3.967-3.967
		C39.282,11.409,41.062,13.199,41.062,15.376L41.062,15.376z M41.062,15.376"/>
</g>
<path id="XMLID_2426_" style="display:none;fill:#B4B4B4;" d="M46.315,3.71H32.987V2.105c0-0.886-0.597-1.605-1.333-1.605H20.993
	c-0.736,0-1.333,0.719-1.333,1.605V3.71H6.333C5.597,3.71,5,4.429,5,5.315v32.102c0,0.886,0.597,1.605,1.333,1.605h9.406
	l-5.16,8.701l2.17,1.865l6.266-10.566h5.976v11.236h2.665V39.023h5.976L39.9,49.589l2.168-1.865l-5.16-8.701h9.406
	c0.737,0,1.333-0.719,1.333-1.605V5.315C47.647,4.429,47.052,3.71,46.315,3.71z M22.325,3.71h7.996v3.21h-7.996V3.71z M19.66,6.92
	v1.605c0,0.886,0.597,1.605,1.333,1.605h10.662c0.736,0,1.333-0.719,1.333-1.605V6.92h11.995v22.472H7.665V6.92H19.66z
	 M7.665,35.812v-3.21h37.316v3.21H7.665z"/>
<g id="XMLID_2431_" style="display:none;">
	<path id="XMLID_2436_" style="display:inline;fill:#B4B4B4;" d="M46.108,0.648H12.279c-0.543,0-0.984,0.441-0.984,0.984v33.681
		l-5.05,5.05c-1.247,1.247-1.247,3.276,0,4.524c0.624,0.624,1.443,0.935,2.262,0.935s1.638-0.312,2.262-0.935l0.526-0.526v4.711
		c0,0.544,0.441,0.984,0.984,0.984h25.723c0.261,0,0.511-0.104,0.696-0.288l8.106-8.106c0.185-0.185,0.288-0.435,0.288-0.696V1.632
		C47.092,1.089,46.651,0.648,46.108,0.648z M9.377,43.494c-0.48,0.48-1.26,0.48-1.74,0s-0.48-1.26,0-1.74l9.43-9.43l1.74,1.74
		L9.377,43.494z M14.237,41.35l7.165-7.165c0.361-0.361,0.361-0.946,0-1.307l-0.845-0.845l1.767-1.767
		c1.9,1.587,4.344,2.543,7.008,2.543c6.038,0,10.95-4.912,10.95-10.95s-4.912-10.95-10.95-10.95s-10.95,4.912-10.95,10.95
		c0,2.71,0.99,5.194,2.628,7.108l-1.759,1.759l-0.788-0.788c-0.173-0.173-0.408-0.271-0.653-0.271c-0.245,0-0.48,0.097-0.653,0.271
		l-2.918,2.918V4.006h29.912v35.08l-6.692-0.006h-0.001c-0.245,0-0.48,0.097-0.654,0.271c-0.173,0.173-0.271,0.409-0.271,0.654
		l0.006,6.692H14.237V41.35z M20.713,22.078c0-4.898,3.685-8.874,8.583-8.874s8.686,3.596,8.686,8.494s-3.743,8.837-8.641,8.837
		S20.713,26.975,20.713,22.078z M38.98,41.944h4.214l-4.214,4.093V41.944z"/>
	<path id="XMLID_2435_" style="display:inline;fill:#B4B4B4;" d="M23.879,22.665h11.023c0.543,0,0.984-0.441,0.984-0.984
		c0-0.544-0.441-0.984-0.984-0.984H23.879c-0.543,0-0.984,0.441-0.984,0.984C22.894,22.225,23.335,22.665,23.879,22.665z"/>
	<path id="XMLID_2434_" style="display:inline;fill:#B4B4B4;" d="M35.886,25.52c0-0.544-0.441-0.984-0.984-0.984H23.879
		c-0.543,0-0.984,0.441-0.984,0.984c0,0.544,0.441,0.984,0.984,0.984h11.023C35.445,26.504,35.886,26.063,35.886,25.52z"/>
	<path id="XMLID_2433_" style="display:inline;fill:#B4B4B4;" d="M23.879,18.729h4.429c0.543,0,0.984-0.441,0.984-0.984
		c0-0.544-0.441-0.984-0.984-0.984h-4.429c-0.543,0-0.984,0.441-0.984,0.984C22.894,18.288,23.335,18.729,23.879,18.729z"/>
	<path id="XMLID_2432_" style="display:inline;fill:#B4B4B4;" d="M31.26,18.729h0.591c0.543,0,0.984-0.441,0.984-0.984
		c0-0.544-0.441-0.984-0.984-0.984H31.26c-0.543,0-0.984,0.441-0.984,0.984C30.276,18.288,30.717,18.729,31.26,18.729z"/>
</g>
<path id="XMLID_2442_" style="display:none;fill:#B4B4B4;" d="M48.028,8.665v-3.08c0-2.651-2.157-4.808-4.808-4.808H30.398
	c-2.09,0-3.872,1.34-4.534,3.205h-8.288c-2.651,0-4.808,2.157-4.808,4.808s2.157,4.808,4.808,4.808h12.822
	c2.09,0,3.872-1.34,4.534-3.205h3.207l-2.699,17.096h-4.507v-8.014c0-1.317-1.509-2.074-2.564-1.282L18.11,25.886v-6.411
	c0-1.317-1.509-2.074-2.564-1.282L2.724,27.809c-0.404,0.303-0.641,0.778-0.641,1.282v19.232c0,0.885,0.718,1.603,1.603,1.603H49.63
	c0.885,0,1.603-0.718,1.603-1.603V29.091C51.233,28.88,51.352,29.72,48.028,8.665z M40.203,17.872h6.034l0.506,3.205h-7.046
	L40.203,17.872z M33.603,7.188c-0.885,0-1.603,0.718-1.603,1.603c0,0.884-0.719,1.603-1.603,1.603H17.576
	c-0.884,0-1.603-0.719-1.603-1.603c0-0.884,0.719-1.603,1.603-1.603h9.616c0.885,0,1.603-0.718,1.603-1.603
	c0-0.884,0.719-1.603,1.603-1.603h12.822c0.884,0,1.603,0.719,1.603,1.603v1.603C43.303,7.188,35.342,7.188,33.603,7.188z
	 M45.055,10.393l0.675,4.274h-5.021l0.675-4.274H45.055z M39.19,24.283h8.058l0.506,3.205h-9.07L39.19,24.283z M48.028,46.721H5.289
	V29.893l9.616-7.212v6.411c0,1.317,1.509,2.074,2.564,1.282l10.257-7.693v6.411c0,0.885,0.718,1.603,1.603,1.603h18.698V46.721z"/>
<g id="XMLID_2449_" style="display:none;">
	<path id="XMLID_2454_" style="display:inline;fill:#B4B4B4;" d="M26.421,28.542c7.668,0,13.886-6.218,13.886-13.884
		c0-7.666-6.218-13.842-13.886-13.842c-7.666,0-13.885,6.218-13.885,13.842S18.755,28.542,26.421,28.542L26.421,28.542z
		 M26.421,4.437c5.623,0,10.224,4.6,10.224,10.222s-4.6,10.222-10.224,10.222c-5.622,0-10.222-4.6-10.222-10.222
		S20.8,4.437,26.421,4.437L26.421,4.437z M26.421,4.437"/>
	<path id="XMLID_2450_" style="display:inline;fill:#B4B4B4;" d="M2.4,50.223h48.214c1.023,0,1.832-0.809,1.832-1.833
		c0-9.583-7.794-17.419-17.421-17.419H17.988c-9.583,0-17.42,7.794-17.42,17.419C0.568,49.414,1.378,50.223,2.4,50.223L2.4,50.223z
		 M17.988,34.634h17.037c6.986,0,12.736,5.197,13.63,11.927H4.36C5.254,39.872,11.005,34.634,17.988,34.634L17.988,34.634z
		 M17.988,34.634"/>
</g>
</svg>
