<?xml version="1.0" encoding="utf-8"?>
<!-- Generator: Adobe Illustrator 21.1.0, SVG Export Plug-In . SVG Version: 6.00 Build 0)  -->
<svg version="1.1" id="Layer_1" xmlns="http://www.w3.org/2000/svg" xmlns:xlink="http://www.w3.org/1999/xlink" x="0px" y="0px"
	 viewBox="0 0 29.4 28.3" style="enable-background:new 0 0 29.4 28.3;" xml:space="preserve">
<style type="text/css">
	.st0{fill:#29ABE2;}
	.st1{fill:#FFFFFF;}
	.st2{opacity:0.86;}
	.st3{fill:#B71D1D;}
</style>
<g id="XMLID_4_">
	<path class="st0" d="M26.4,28.3H2.9c-1.7,0-3-1.3-3-3V3c0-1.7,1.3-3,3-3h23.4c1.7,0,3,1.3,3,3v22.3C29.4,27,28,28.3,26.4,28.3z"/>
</g>
<g>
	<path class="st1" d="M22.4,6.7l-2.6,15.4c0,0.2-0.2,0.4-0.3,0.5c-0.1,0.1-0.2,0.1-0.3,0.1c-0.1,0-0.2,0-0.2-0.1l-4.5-1.9l-2.4,3
		c-0.1,0.2-0.3,0.2-0.5,0.2c-0.1,0-0.2,0-0.2,0c-0.3-0.1-0.4-0.3-0.4-0.6v-3.5l8.7-10.6L8.7,18.5l-4-1.6c-0.2-0.1-0.4-0.3-0.4-0.6
		c0-0.2,0.1-0.5,0.3-0.6l16.7-9.6C21.5,6,21.6,6,21.7,6c0.1,0,0.3,0,0.4,0.1C22.3,6.3,22.4,6.5,22.4,6.7z"/>
</g>
<g id="XMLID_19_" class="st2">
	<path class="st3" d="M26.5,28.3H3.1c-1.7,0-3-1.3-3-3V3c0-1.7,1.3-3,3-3h23.4c1.7,0,3,1.3,3,3v22.3C29.5,27,28.2,28.3,26.5,28.3z"
		/>
</g>
<g>
	<path class="st1" d="M16.2,14.3c-0.1-0.1-0.1-0.2,0-0.3l3.3-3.3c0.1-0.1,0.1-0.2,0.1-0.3c0-0.1,0-0.2-0.1-0.3l-0.6-0.6
		c-0.1-0.1-0.2-0.1-0.3-0.1c-0.1,0-0.2,0-0.3,0.1l-3.3,3.3c-0.1,0.1-0.2,0.1-0.3,0l-3.3-3.3c-0.1-0.1-0.2-0.1-0.3-0.1
		c-0.1,0-0.2,0-0.3,0.1l-0.6,0.6c-0.1,0.1-0.1,0.2-0.1,0.3c0,0.1,0,0.2,0.1,0.3l3.3,3.3c0.1,0.1,0.1,0.2,0,0.3l-3.3,3.3
		c-0.1,0.1-0.1,0.2-0.1,0.3c0,0.1,0,0.2,0.1,0.3l0.6,0.6C10.8,19,10.9,19,11,19c0.1,0,0.2,0,0.3-0.1l3.3-3.3c0.1-0.1,0.2-0.1,0.3,0
		l3.3,3.3c0.1,0.1,0.2,0.1,0.3,0.1c0.1,0,0.2,0,0.3-0.1l0.6-0.6c0.1-0.1,0.1-0.2,0.1-0.3c0-0.1,0-0.2-0.1-0.3L16.2,14.3z M16.2,14.3
		"/>
</g>
</svg>
