<?xml version="1.0" encoding="iso-8859-1"?>
<!-- Generator: Adobe Illustrator 19.1.1, SVG Export Plug-In . SVG Version: 6.00 Build 0)  -->
<svg version="1.1" id="Layer_1" xmlns="http://www.w3.org/2000/svg" xmlns:xlink="http://www.w3.org/1999/xlink" x="0px" y="0px"
	 viewBox="0 0 255.418 71.134" style="enable-background:new 0 0 255.418 71.134;" xml:space="preserve">
<path id="XMLID_3126_" style="fill:#2EABE2;" d="M247.246,11.895V8.063c0-3.299-2.684-5.983-5.983-5.983H225.31
	c-2.6,0-4.818,1.667-5.641,3.988h-10.313c-3.299,0-5.983,2.684-5.983,5.983s2.684,5.983,5.983,5.983h15.954
	c2.6,0,4.818-1.667,5.641-3.988h3.991l-3.359,21.272h-5.608v-9.971c0-1.639-1.878-2.581-3.191-1.595l-12.763,9.572v-7.977
	c0-1.639-1.878-2.581-3.191-1.595l-15.954,11.965c-0.502,0.377-0.798,0.968-0.798,1.595v23.931c0,1.101,0.893,1.994,1.994,1.994
	h57.168c1.101,0,1.994-0.893,1.994-1.994V37.312C251.235,37.048,251.383,38.094,247.246,11.895z M237.51,23.352h7.508l0.63,3.988
	h-8.767L237.51,23.352z M229.298,10.057c-1.101,0-1.994,0.893-1.994,1.994c0,1.1-0.895,1.994-1.994,1.994h-15.954
	c-1.1,0-1.994-0.895-1.994-1.994s0.895-1.994,1.994-1.994h11.965c1.101,0,1.994-0.893,1.994-1.994c0-1.1,0.895-1.994,1.994-1.994
	h15.954c1.1,0,1.994,0.895,1.994,1.994v1.994C241.368,10.057,231.462,10.057,229.298,10.057z M243.548,14.046l0.84,5.318h-6.248
	l0.84-5.318H243.548z M236.25,31.329h10.027l0.63,3.988h-11.286L236.25,31.329z M247.246,59.248h-53.18v-20.94l11.965-8.974v7.977
	c0,1.639,1.877,2.58,3.191,1.595l12.763-9.572v7.977c0,1.101,0.893,1.994,1.994,1.994h23.266V59.248z"/>
<path id="XMLID_3146_" style="fill:#2EABE2;" d="M61.673,7.648H42.311v-2.14c0-1.181-0.867-2.14-1.936-2.14H24.885
	c-1.069,0-1.936,0.959-1.936,2.14v2.14H3.587c-1.069,0-1.936,0.959-1.936,2.14v42.796c0,1.181,0.867,2.14,1.936,2.14h13.665
	l-7.497,11.6l3.152,2.486l9.104-14.086h8.682v14.978h3.872V54.723h8.682l9.106,14.086l3.15-2.486l-7.497-11.6h13.666
	c1.071,0,1.936-0.959,1.936-2.14V9.788C63.609,8.606,62.743,7.648,61.673,7.648z M26.821,7.648h11.617v4.28H26.821V7.648z
	 M22.949,11.927v2.14c0,1.181,0.867,2.14,1.936,2.14h15.489c1.069,0,1.936-0.959,1.936-2.14v-2.14h17.426v29.957H5.524V11.927
	H22.949z M5.524,50.443v-4.28h54.213v4.28H5.524z"/>
<g id="XMLID_3142_">
	<g>
		
			<line style="fill:none;stroke:#2EABE2;stroke-width:3;stroke-miterlimit:10;stroke-dasharray:8,8;" x1="73.56" y1="37.551" x2="168.56" y2="37.551"/>
		<g>
			<polygon style="fill:#2EABE2;" points="165.56,45.329 179.031,37.551 165.56,29.772 			"/>
		</g>
	</g>
</g>
</svg>
