<?xml version="1.0" encoding="iso-8859-1"?>
<!-- Generator: Adobe Illustrator 19.1.1, SVG Export Plug-In . SVG Version: 6.00 Build 0)  -->
<svg version="1.1" id="Layer_1" xmlns="http://www.w3.org/2000/svg" xmlns:xlink="http://www.w3.org/1999/xlink" x="0px" y="0px"
	 viewBox="0 0 105.779 95.091" style="enable-background:new 0 0 105.779 95.091;" xml:space="preserve">
<g id="XMLID_3278_">
	<path id="XMLID_3293_" style="fill:#9A9999;" d="M102.56,81.071V5.051h-3v77.387C100.56,81.98,101.56,81.524,102.56,81.071z"/>
	<path id="XMLID_3295_" style="fill:#F2F2F2;" d="M5.56,5.051h78v-3h-81v76.642c1-0.255,2-0.478,3-0.661V5.051z"/>
	<path id="XMLID_3308_" style="fill:#F2F2F2;" d="M5.56,5.051v72.981c2-0.37,4.118-0.585,6.147-0.585
		c3.767,0,6.853,0.78,10.853,1.967v-0.364h8.441H75.56v2.069v1.155v1.057v1.154v1.057v1.509H40.373c4.589,2,9.525,3,15.098,4h9.089
		v0.276c0-0.022,0.936-0.039,1.404-0.074c6.078-0.453,12.596-1.617,17.596-3.144V5.051H5.56z M37.56,13.051h33v4h-33V13.051z
		 M37.56,23.988v-1.057v-1.154V20.72v-1.669h30v1.669v4.331H45.319H37.56V23.988z M37.56,28.051h24v1h-24V28.051z M37.56,31.679
		v-1.057v-0.571h19v0.571v1.057v1.372h-19V31.679z M37.56,35.051h26v3h-26V35.051z M22.14,37.051h-0.005
		c-0.354,0-0.703-0.422-1.049-0.453c-0.107-0.01-0.214-0.224-0.32-0.236c-0.249-0.03-0.495-0.167-0.738-0.213
		c-0.108-0.02-0.216-0.088-0.323-0.111c-0.321-0.069-0.639-0.173-0.95-0.269c-0.081-0.025-0.159-0.069-0.24-0.096
		c-0.234-0.078-0.466-0.168-0.693-0.26c-0.129-0.052-0.256-0.112-0.382-0.168c-0.179-0.08-0.355-0.167-0.529-0.256
		c-0.125-0.064-0.252-0.127-0.374-0.196c-0.26-0.145-0.515-0.299-0.762-0.464v0c-3.101-2.063-5.147-5.586-5.147-9.59
		c0-6.358,5.154-11.513,11.513-11.513c6.358,0,11.513,5.155,11.513,11.513c0,4.004-2.046,7.527-5.147,9.59l0,0
		c-0.247,0.164-0.502,0.317-0.762,0.463c-0.123,0.069-0.25,0.131-0.375,0.195c-0.174,0.089-0.35,0.174-0.528,0.255
		c-0.127,0.057-0.253,0.113-0.382,0.165c-0.228,0.093-0.46,0.176-0.694,0.254c-0.08,0.027-0.158,0.058-0.239,0.083
		c-0.311,0.096-0.628,0.175-0.95,0.244c-0.107,0.023-0.215,0.041-0.323,0.061c-0.244,0.045-0.49,0.083-0.739,0.113
		c-0.107,0.013-0.213,0.427-0.32,0.436c-0.346,0.032-0.695,0.453-1.049,0.453C22.143,37.051,22.142,37.051,22.14,37.051z
		 M22.56,46.051h14.103h7.897v1.969v1.031h-22V48.02v-1.057V46.051z M22.56,60.051h14.103h7.897v2.294v0.706h-22v-0.706v-1.057
		V60.051z M44.56,76.697v1.354h-22v-1.354V75.64v-1.589h14.103h7.897V76.697z M75.56,66.767v1.154v1.057v1.155v1.057v0.861h-53
		V71.19v-1.057v-1.155v-1.057v-1.154V65.71v-1.659h8.441H75.56V66.767z M75.56,52.442v1.154v1.057v1.154v1.057v1.186h-53v-1.186
		v-1.057v-1.154v-1.057v-1.154v-1.057v-1.335h8.441H75.56V52.442z M22.56,43.051v-1h53v1H22.56z"/>
	<path id="XMLID_3320_" style="fill:#54A4DB;" d="M27.744,34.79c-0.123,0.069-0.25,0.131-0.375,0.195
		C27.495,34.921,27.621,34.859,27.744,34.79z"/>
	<path id="XMLID_3321_" style="fill:#54A4DB;" d="M26.84,35.24c-0.126,0.057-0.253,0.113-0.382,0.165
		C26.587,35.353,26.714,35.297,26.84,35.24z"/>
	<path id="XMLID_3322_" style="fill:#54A4DB;" d="M24.575,35.987c-0.107,0.023-0.215,0.041-0.323,0.061
		C24.36,36.028,24.469,36.01,24.575,35.987z"/>
	<path id="XMLID_3323_" style="fill:#54A4DB;" d="M23.514,36.161c-0.106,0.013-0.213,0.026-0.32,0.036
		C23.301,36.187,23.407,36.174,23.514,36.161z"/>
	<path id="XMLID_3326_" style="fill:#54A4DB;" d="M18.578,29.051h7.125c1.548,0,1.857,0.896,1.857,2.444v2.833
		c4-2.063,5.62-5.586,5.62-9.59c0-6.358-4.918-11.513-11.276-11.513c-6.359,0-11.502,5.155-11.502,11.513
		c0,4.004,1.158,7.527,5.158,9.59v-2.833C15.56,29.946,17.029,29.051,18.578,29.051z M22.14,18.261c2.484,0,4.498,2.014,4.498,4.498
		c0,2.484-2.014,4.498-4.498,4.498c-2.484,0-4.498-2.014-4.498-4.498C17.642,20.274,19.656,18.261,22.14,18.261z"/>
	<path id="XMLID_3327_" style="fill:#54A4DB;" d="M25.764,35.66c-0.08,0.027-0.158,0.058-0.239,0.083
		C25.606,35.718,25.683,35.686,25.764,35.66z"/>
	<path id="XMLID_3328_" style="fill:#54A4DB;" d="M16.911,34.985c-0.125-0.064-0.252-0.126-0.374-0.195
		C16.659,34.859,16.786,34.921,16.911,34.985z"/>
	<path id="XMLID_3329_" style="fill:#54A4DB;" d="M21.087,36.197c-0.107-0.01-0.214-0.023-0.32-0.036
		C20.873,36.174,20.979,36.187,21.087,36.197z"/>
	<circle id="XMLID_3330_" style="fill:#54A4DB;" cx="22.14" cy="36.25" r="0.005"/>
	<path id="XMLID_3331_" style="fill:#54A4DB;" d="M20.028,36.048c-0.108-0.02-0.217-0.038-0.323-0.061
		C19.812,36.01,19.92,36.028,20.028,36.048z"/>
	<path id="XMLID_3332_" style="fill:#54A4DB;" d="M18.756,35.743c-0.081-0.025-0.159-0.057-0.24-0.084
		C18.596,35.686,18.674,35.718,18.756,35.743z"/>
	<path id="XMLID_3333_" style="fill:#54A4DB;" d="M17.823,35.406c-0.129-0.052-0.256-0.108-0.382-0.165
		C17.567,35.297,17.693,35.353,17.823,35.406z"/>
	<rect id="XMLID_3334_" x="37.56" y="13.051" style="fill:#54A4DB;" width="33" height="4"/>
	<rect id="XMLID_3335_" x="37.56" y="35.051" style="fill:#54A4DB;" width="26" height="3"/>
	<rect id="XMLID_3336_" x="37.56" y="28.051" style="fill:#3080B9;" width="24" height="1"/>
	<rect id="XMLID_3337_" x="22.56" y="42.051" style="fill:#3080B9;" width="53" height="1"/>
	<path id="XMLID_3339_" style="fill:#3080B9;" d="M55.471,91.051c2.97,1,5.089,0.44,9.089,0.276v-0.276H55.471z"/>
	<polygon id="XMLID_3345_" style="fill:#CDCCCC;" points="67.56,25.051 67.56,20.72 67.56,19.051 37.56,19.051 37.56,20.72 
		37.56,21.777 37.56,22.931 37.56,23.988 37.56,25.051 45.319,25.051 	"/>
	<polygon id="XMLID_3346_" style="fill:#CDCCCC;" points="56.56,31.679 56.56,30.622 56.56,30.051 37.56,30.051 37.56,30.622 
		37.56,31.679 37.56,33.051 56.56,33.051 	"/>
	<polygon id="XMLID_3347_" style="fill:#CDCCCC;" points="22.56,50.051 22.56,51.386 22.56,52.442 22.56,53.597 22.56,54.654 
		22.56,55.808 22.56,56.865 22.56,58.051 75.56,58.051 75.56,56.865 75.56,55.808 75.56,54.654 75.56,53.597 75.56,52.442 
		75.56,50.051 31.001,50.051 	"/>
	<polygon id="XMLID_3348_" style="fill:#CDCCCC;" points="22.56,64.051 22.56,65.71 22.56,66.767 22.56,67.922 22.56,68.978 
		22.56,70.133 22.56,71.19 22.56,72.051 75.56,72.051 75.56,71.19 75.56,70.133 75.56,68.978 75.56,67.922 75.56,66.767 
		75.56,64.051 31.001,64.051 	"/>
	<path id="XMLID_3349_" style="fill:#CDCCCC;" d="M75.56,85.542v-1.057v-1.154v-1.057v-1.155v-2.069H31.001H22.56v0.364
		c5,1.884,11.652,5.636,17.813,7.636H75.56V85.542z"/>
	<path id="XMLID_3174_" style="fill:#CDCCCC;" d="M76,108"/>
	<path id="XMLID_1654_" style="fill:#CDCCCC;" d="M23,108"/>
	<polygon id="XMLID_3353_" style="fill:#54A4DB;" points="22.56,49.051 44.56,49.051 44.56,48.02 44.56,46.051 36.663,46.051 
		22.56,46.051 22.56,46.963 22.56,48.02 	"/>
	<polygon id="XMLID_3354_" style="fill:#54A4DB;" points="22.56,63.051 44.56,63.051 44.56,62.344 44.56,60.051 36.663,60.051 
		22.56,60.051 22.56,61.288 22.56,62.344 	"/>
	<polygon id="XMLID_3355_" style="fill:#54A4DB;" points="22.56,74.051 22.56,75.64 22.56,76.697 22.56,78.051 44.56,78.051 
		44.56,76.697 44.56,74.051 36.663,74.051 	"/>
	<circle id="XMLID_3356_" style="fill:#3080B9;" cx="22.14" cy="22.758" r="4.498"/>
	<path id="XMLID_3357_" style="fill:#3080B9;" d="M22.135,36.25c-0.354,0-0.703-0.021-1.049-0.053
		C21.432,36.229,21.781,36.25,22.135,36.25z"/>
	<path id="XMLID_3358_" style="fill:#3080B9;" d="M20.766,36.161c-0.249-0.03-0.495-0.067-0.738-0.113
		C20.272,36.094,20.518,36.131,20.766,36.161z"/>
	<path id="XMLID_3359_" style="fill:#3080B9;" d="M18.515,35.659c-0.234-0.078-0.466-0.162-0.693-0.254
		C18.05,35.498,18.281,35.581,18.515,35.659z"/>
	<path id="XMLID_3360_" style="fill:#3080B9;" d="M19.705,35.987c-0.321-0.069-0.639-0.149-0.95-0.244
		C19.066,35.839,19.384,35.918,19.705,35.987z"/>
	<path id="XMLID_3361_" style="fill:#3080B9;" d="M26.458,35.405c-0.228,0.092-0.46,0.176-0.694,0.254
		C25.998,35.582,26.23,35.498,26.458,35.405z"/>
	<path id="XMLID_3362_" style="fill:#3080B9;" d="M24.252,36.048c-0.244,0.045-0.49,0.083-0.739,0.113
		C23.763,36.131,24.009,36.094,24.252,36.048z"/>
	<path id="XMLID_3363_" style="fill:#3080B9;" d="M28.506,34.327L28.506,34.327c-0.247,0.164-0.502,0.318-0.762,0.463
		C28.004,34.645,28.259,34.492,28.506,34.327z"/>
	<path id="XMLID_3364_" style="fill:#3080B9;" d="M25.525,35.743c-0.311,0.095-0.628,0.175-0.95,0.244
		C24.897,35.918,25.214,35.839,25.525,35.743z"/>
	<path id="XMLID_3365_" style="fill:#3080B9;" d="M27.369,34.986c-0.174,0.089-0.35,0.174-0.528,0.255
		C27.019,35.16,27.195,35.075,27.369,34.986z"/>
	<path id="XMLID_3366_" style="fill:#3080B9;" d="M17.44,35.24c-0.179-0.08-0.355-0.166-0.529-0.255
		C17.085,35.075,17.261,35.16,17.44,35.24z"/>
	<path id="XMLID_3367_" style="fill:#3080B9;" d="M22.145,36.25c0.354,0,0.703-0.021,1.049-0.053
		C22.848,36.229,22.499,36.25,22.145,36.25z"/>
	<path id="XMLID_3368_" style="fill:#3080B9;" d="M15.774,34.327c0.247,0.164,0.502,0.318,0.762,0.463
		C16.277,34.645,16.021,34.492,15.774,34.327L15.774,34.327z"/>
	<path id="XMLID_3369_" style="fill:#3080B9;" d="M23.514,36.161c0.249-0.03,0.495-0.068,0.739-0.113
		c0.108-0.02,0.216-0.038,0.323-0.061c0.321-0.069,0.639-0.149,0.95-0.244c0.081-0.025,0.158-0.057,0.239-0.083
		c0.235-0.078,0.467-0.162,0.694-0.254c0.129-0.052,0.256-0.108,0.382-0.165c0.179-0.08,0.355-0.166,0.528-0.255
		c0.126-0.064-0.221-0.127-0.098-0.195c0.26-0.145,0.289-0.299,0.289-0.463v-2.833c0-1.548-0.308-2.444-1.857-2.444h-7.125
		c-1.548,0-3.018,0.896-3.018,2.444v2.833c0,0.164,0.61,0.318,0.87,0.463c0.123,0.069,0.303,0.131,0.428,0.195
		c0.174,0.089,0.377,0.175,0.556,0.255c0.127,0.057,0.267,0.113,0.396,0.165c0.227,0.092,0.465,0.176,0.7,0.254
		c0.081,0.027,0.162,0.059,0.244,0.084c0.311,0.095,0.63,0.175,0.951,0.244c0.107,0.023,0.216,0.041,0.324,0.061
		c0.243,0.045,0.49,0.083,0.738,0.113c0.107,0.013,0.213,0.427,0.32,0.437c0.346,0.031,0.695,0.453,1.049,0.453h0.005
		c0,0,0.003,0,0.005,0c0.354,0,0.703-0.422,1.049-0.453C23.301,36.588,23.407,36.174,23.514,36.161z"/>
	<rect id="XMLID_3370_" x="83.56" y="2.051" style="fill:#54A4DB;" width="16" height="3"/>
	<path id="XMLID_3372_" style="fill:#54A4DB;" d="M83.56,88.109c6-1.619,11-3.646,16-5.672V5.051h-16V88.109z"/>
</g>
</svg>
