<?xml version="1.0" encoding="iso-8859-1"?>
<!-- Generator: Adobe Illustrator 19.1.1, SVG Export Plug-In . SVG Version: 6.00 Build 0)  -->
<svg version="1.1" id="Layer_2" xmlns="http://www.w3.org/2000/svg" xmlns:xlink="http://www.w3.org/1999/xlink" x="0px" y="0px"
	 viewBox="0 0 216.557 57.344" style="enable-background:new 0 0 216.557 57.344;" xml:space="preserve">
<polygon id="XMLID_271_" style="fill:#CCCCCC;" points="208.693,0.39 203.145,5.937 202.204,6.878 195.716,13.367 192.71,10.361 
	183.216,0.867 176.727,7.356 186.221,16.85 195.715,26.344 201.263,20.797 208.693,13.367 208.693,13.367 215.181,6.878 "/>
<polygon id="XMLID_1535_" style="fill:#D9E021;" points="178.693,31.39 173.145,36.937 172.204,37.878 165.716,44.367 
	162.71,41.361 153.216,31.867 146.727,38.356 156.221,47.85 165.715,57.344 171.263,51.797 178.693,44.367 178.693,44.367 
	185.181,37.878 "/>
<polygon id="XMLID_1537_" style="fill:#CCCCCC;" points="38.518,23.69 31.966,30.241 30.854,31.353 23.19,39.017 19.641,35.467 
	8.427,24.254 0.764,31.917 11.977,43.131 23.19,54.344 29.742,47.792 38.518,39.017 38.518,39.017 46.181,31.353 "/>
<polygon id="XMLID_1536_" style="fill:#CCCCCC;" points="111.89,5.39 102.491,14.789 100.895,16.384 89.901,27.378 84.809,22.286 
	68.722,6.199 57.727,17.193 73.814,33.28 89.901,49.367 99.3,39.968 111.89,27.378 111.89,27.378 122.884,16.384 "/>
</svg>
