<?xml version="1.0" encoding="utf-8"?>
<!-- Generator: Adobe Illustrator 19.1.1, SVG Export Plug-In . SVG Version: 6.00 Build 0)  -->
<svg version="1.1" id="Layer_1" xmlns="http://www.w3.org/2000/svg" xmlns:xlink="http://www.w3.org/1999/xlink" x="0px" y="0px"
	 viewBox="0 0 16.2 16.2" style="enable-background:new 0 0 16.2 16.2;" xml:space="preserve">
<style type="text/css">
	.st0{fill:#0A425C;}
</style>
<g id="XMLID_42_">
	<path id="XMLID_325_" class="st0" d="M8.1,16.2C3.6,16.2,0,12.6,0,8.1C0,3.6,3.6,0,8.1,0c4.5,0,8.1,3.6,8.1,8.1
		C16.2,12.6,12.6,16.2,8.1,16.2L8.1,16.2z M8.1,0.9c-4,0-7.2,3.2-7.2,7.2c0,4,3.2,7.2,7.2,7.2c4,0,7.2-3.2,7.2-7.2
		C15.3,4.1,12.1,0.9,8.1,0.9L8.1,0.9z M8.1,0.9"/>
	<path id="XMLID_322_" class="st0" d="M11.3,8.6H4.9c-0.3,0-0.5-0.2-0.5-0.5c0-0.3,0.2-0.5,0.5-0.5h6.4c0.3,0,0.5,0.2,0.5,0.5
		C11.8,8.4,11.5,8.6,11.3,8.6L11.3,8.6z M11.3,8.6"/>
	<path id="XMLID_50_" class="st0" d="M8.1,11.8c-0.3,0-0.5-0.2-0.5-0.5V4.9c0-0.3,0.2-0.5,0.5-0.5c0.3,0,0.5,0.2,0.5,0.5v6.4
		C8.6,11.5,8.4,11.8,8.1,11.8L8.1,11.8z M8.1,11.8"/>
</g>
</svg>
