<?xml version="1.0" encoding="iso-8859-1"?>
<!-- Generator: Adobe Illustrator 19.1.1, SVG Export Plug-In . SVG Version: 6.00 Build 0)  -->
<svg version="1.1" id="Layer_1" xmlns="http://www.w3.org/2000/svg" xmlns:xlink="http://www.w3.org/1999/xlink" x="0px" y="0px"
	 viewBox="0 0 109.914 109.642" style="enable-background:new 0 0 109.914 109.642;" xml:space="preserve">
<g id="XMLID_1784_">
	<path id="XMLID_2197_" style="fill:#B4B4B4;" d="M48.622,55.236c7.189,0,13.019-5.83,13.019-13.017
		c0-7.187-5.83-12.978-13.019-12.978c-7.187,0-13.017,5.83-13.017,12.978S41.435,55.236,48.622,55.236L48.622,55.236z
		 M48.622,32.636c5.272,0,9.585,4.313,9.585,9.583s-4.313,9.583-9.585,9.583c-5.27,0-9.584-4.313-9.584-9.583
		S43.351,32.636,48.622,32.636L48.622,32.636z M48.622,32.636"/>
	<path id="XMLID_1792_" style="fill:#B4B4B4;" d="M26.101,75.563h45.202c0.959,0,1.718-0.759,1.718-1.718
		c0-8.985-7.307-16.331-16.333-16.331H40.715c-8.985,0-16.331,7.307-16.331,16.331C24.384,74.804,25.142,75.563,26.101,75.563
		L26.101,75.563z M40.715,60.947h15.973c6.549,0,11.941,4.872,12.779,11.182H27.938C28.777,65.858,34.168,60.947,40.715,60.947
		L40.715,60.947z M40.715,60.947"/>
</g>
<circle id="XMLID_2265_" style="fill:#F2F2F2;stroke:#B4B4B4;stroke-width:3;stroke-miterlimit:10;" cx="78.57" cy="66.43" r="11.07"/>
<path id="XMLID_2253_" style="fill:#B4B4B4;" d="M85.848,65.487h-6.081v-6.081c0-0.67-0.546-1.218-1.218-1.218
	c-0.67,0-1.218,0.547-1.218,1.218v6.081H71.25c-0.67,0-1.21,0.546-1.21,1.218c0,0.67,0.54,1.218,1.21,1.218h6.081v6.081
	c0,0.67,0.547,1.21,1.218,1.21c0.672,0,1.218-0.54,1.218-1.21v-6.081h6.081c0.67,0,1.218-0.547,1.218-1.218
	C87.065,66.033,86.518,65.487,85.848,65.487L85.848,65.487z M85.848,65.487"/>
<circle id="XMLID_2250_" style="opacity:0.65;fill:none;stroke:#B4B4B4;stroke-width:4;stroke-miterlimit:10;" cx="55.053" cy="55.128" r="51.795"/>
</svg>
