<?xml version="1.0" encoding="iso-8859-1"?>
<!-- Generator: Adobe Illustrator 19.1.1, SVG Export Plug-In . SVG Version: 6.00 Build 0)  -->
<svg version="1.1" id="Layer_1" xmlns="http://www.w3.org/2000/svg" xmlns:xlink="http://www.w3.org/1999/xlink" x="0px" y="0px"
	 viewBox="0 0 109.914 109.642" style="enable-background:new 0 0 109.914 109.642;" xml:space="preserve">
<g id="XMLID_2729_">
	<path id="XMLID_2726_" style="fill:#FFFFFF;" d="M62.524,76.855l-0.884-8.543c-0.055-0.486,0.088-0.995,0.409-1.37l10.886-13.373
		V27.211c0-0.906-0.74-1.647-1.647-1.647H34.751c-0.906,0-1.647,0.74-1.647,1.647v48.672h7.46c1.028,0,1.868,0.829,1.868,1.868v7.46
		h28.867c0.906,0,1.647-0.74,1.647-1.647v-5.891l-8.366,0.873C63.563,78.613,62.635,77.872,62.524,76.855z"/>
	<path id="XMLID_2725_" style="fill:#57ACE1;" d="M62.038,66.931c-0.321,0.387-0.464,0.873-0.409,1.37l0.884,8.543
		c0.111,1.028,1.017,1.768,2.045,1.669l4.653-0.486v1.58c0,1.028-0.829,1.857-1.868,1.857H42.421v-3.747
		c0-1.028-0.829-1.868-1.868-1.868h-3.747V47.668h1.094c1.028,0,1.868-0.829,1.868-1.857c0-1.028-0.829-1.868-1.868-1.868h-1.094
		v-3.316h4.962c1.028,0,1.857-0.829,1.857-1.857s-0.829-1.868-1.857-1.868h-4.951v-5.769c0-1.028,0.829-1.868,1.868-1.868h28.668
		c1.028,0,1.868,0.829,1.868,1.868v26.977L62.038,66.931z"/>
	<path id="XMLID_2724_" style="fill:#FFFFFF;" d="M53.02,40.871c1.768,0,3.205-1.437,3.205-3.205c0-1.768-1.437-3.205-3.205-3.205
		c-1.768,0-3.205,1.437-3.205,3.205C49.815,39.434,51.251,40.871,53.02,40.871z"/>
	<path id="XMLID_2877_" style="fill:#1A5083;" d="M53.02,44.606c3.835,0,6.941-3.117,6.941-6.941s-3.128-6.941-6.941-6.941
		c-3.813,0-6.941,3.117-6.941,6.941S49.185,44.606,53.02,44.606z M53.02,34.45c1.768,0,3.205,1.437,3.205,3.205
		c0,1.768-1.437,3.205-3.205,3.205c-1.768,0-3.205-1.437-3.205-3.205S51.251,34.45,53.02,34.45z"/>
	<path id="XMLID_2720_" style="fill:#FCC016;" d="M53.02,49.679c-4.244,0-7.791,2.995-8.654,6.985h17.307
		C60.811,52.674,57.253,49.679,53.02,49.679z"/>
	<g id="XMLID_2747_">
		<path id="XMLID_2873_" style="fill:#1A5083;" d="M65.597,58.233c-0.155-6.808-5.736-12.29-12.577-12.29
			c-6.941,0-12.577,5.636-12.577,12.577c0,1.028,0.829,1.868,1.868,1.868H63.74h0.011c1.028,0,1.868-0.829,1.868-1.868
			C65.608,58.421,65.608,58.333,65.597,58.233z M44.366,56.664c0.862-3.99,4.41-6.985,8.654-6.985s7.791,2.995,8.654,6.985H44.366z"
			/>
		<path id="XMLID_2716_" style="fill:#1A5083;" d="M55.816,69.981H40.918c-1.028,0-1.868-0.829-1.868-1.868
			c0-1.028,0.829-1.868,1.868-1.868h14.898c1.028,0,1.868,0.829,1.868,1.868S56.844,69.981,55.816,69.981z"/>
		<path id="XMLID_2715_" style="fill:#1A5083;" d="M55.816,78.867h-8.211c-1.028,0-1.868-0.829-1.868-1.868
			c0-1.028,0.829-1.868,1.868-1.868h8.211c1.028,0,1.868,0.829,1.868,1.868C57.684,78.038,56.844,78.867,55.816,78.867z"/>
	</g>
	<polygon id="XMLID_2714_" style="fill:#FFFFFF;" points="38.686,82.558 38.686,79.596 35.724,79.596 	"/>
	<g id="XMLID_2739_">
		<path id="XMLID_2713_" style="fill:#FCC016;" d="M91.181,43.722c-1.746-1.415-4.266-1.205-5.758,0.453l6.498,5.283
			C93.226,47.657,92.928,45.137,91.181,43.722z"/>
		<polygon id="XMLID_2712_" style="fill:#FCC016;" points="66.768,67.03 73.311,72.357 89.579,52.354 83.047,47.049 		"/>
		<polygon id="XMLID_2711_" style="fill:#FCC016;" points="66.039,74.601 69.697,74.236 65.674,70.943 		"/>
	</g>
	<path id="XMLID_2732_" style="fill:#1A5083;" d="M93.535,40.827c-3.404-2.763-8.399-2.244-11.173,1.149l-5.692,7.007V27.211
		c0-2.973-2.42-5.393-5.393-5.393H34.751c-2.973,0-5.393,2.42-5.393,5.393V76.27c0,1.437,0.553,2.785,1.569,3.802l7.261,7.261
		c1.017,1.017,2.365,1.569,3.802,1.569h29.276c2.973,0,5.393-2.42,5.393-5.393v-9.394l18.014-22.137
		C97.459,48.596,96.939,43.59,93.535,40.827z M72.935,83.531c0,0.906-0.74,1.647-1.647,1.647H42.421v-7.46
		c0-1.028-0.829-1.868-1.868-1.868h-7.471V27.211c0-0.906,0.74-1.647,1.647-1.647h36.537c0.906,0,1.647,0.74,1.647,1.647v26.358
		L62.027,66.942c-0.32,0.387-0.464,0.873-0.409,1.37l0.884,8.543c0.111,1.028,1.017,1.768,2.045,1.669l8.366-0.873v5.891h0.022
		V83.531z M38.686,82.558l-2.973-2.973h2.973V82.558z M91.181,43.722c1.746,1.415,2.045,3.934,0.74,5.736l-6.498-5.283
		C86.915,42.517,89.435,42.296,91.181,43.722z M89.579,52.354L73.3,72.357l-6.543-5.316l16.279-20.004L89.579,52.354z
		 M66.039,74.601l-0.387-3.658l4.034,3.271L66.039,74.601z"/>
</g>
<circle id="XMLID_2149_" style="fill:none;stroke:#54A4DB;stroke-width:4;stroke-miterlimit:10;" cx="55" cy="55.128" r="51.795"/>
</svg>
