<?xml version="1.0" encoding="iso-8859-1"?>
<!-- Generator: Adobe Illustrator 19.1.1, SVG Export Plug-In . SVG Version: 6.00 Build 0)  -->
<svg version="1.1" id="Layer_1" xmlns="http://www.w3.org/2000/svg" xmlns:xlink="http://www.w3.org/1999/xlink" x="0px" y="0px"
	 viewBox="0 0 6.131 11.304" style="enable-background:new 0 0 6.131 11.304;" xml:space="preserve">
<g id="XMLID_2312_">
	<path id="XMLID_2328_" style="fill:#3DC474;" d="M-68.365,11.304h-4.09c-0.552,0-1-0.448-1-1V1c0-0.552,0.448-1,1-1h4.09
		c0.552,0,1,0.448,1,1v9.304C-67.365,10.856-67.813,11.304-68.365,11.304z"/>
	<path id="XMLID_2327_" style="fill:#3DC474;" d="M-60.199,11.304h-4.09c-0.552,0-1-0.448-1-1V1c0-0.552,0.448-1,1-1h4.09
		c0.552,0,1,0.448,1,1v9.304C-59.199,10.856-59.646,11.304-60.199,11.304z"/>
	<path id="XMLID_2326_" style="fill:#3DC474;" d="M-52.032,11.304h-4.09c-0.552,0-1-0.448-1-1V1c0-0.552,0.448-1,1-1h4.09
		c0.552,0,1,0.448,1,1v9.304C-51.032,10.856-51.48,11.304-52.032,11.304z"/>
	<path id="XMLID_2325_" style="fill:#3DC474;" d="M-43.866,11.304h-4.09c-0.552,0-1-0.448-1-1V1c0-0.552,0.448-1,1-1h4.09
		c0.552,0,1,0.448,1,1v9.304C-42.866,10.856-43.314,11.304-43.866,11.304z"/>
	<path id="XMLID_2324_" style="fill:#3DC474;" d="M-35.7,11.304h-4.09c-0.552,0-1-0.448-1-1V1c0-0.552,0.448-1,1-1h4.09
		c0.552,0,1,0.448,1,1v9.304C-34.7,10.856-35.148,11.304-35.7,11.304z"/>
	<path id="XMLID_2323_" style="fill:#3DC474;" d="M-27.534,11.304h-4.09c-0.552,0-1-0.448-1-1V1c0-0.552,0.448-1,1-1h4.09
		c0.552,0,1,0.448,1,1v9.304C-26.534,10.856-26.982,11.304-27.534,11.304z"/>
	<path id="XMLID_2322_" style="fill:#3DC474;" d="M-19.368,11.304h-4.09c-0.552,0-1-0.448-1-1V1c0-0.552,0.448-1,1-1h4.09
		c0.552,0,1,0.448,1,1v9.304C-18.368,10.856-18.816,11.304-19.368,11.304z"/>
	<g id="XMLID_2319_">
		<path style="fill:#E6E6E6;" d="M-11.202,11.304h-4.09c-0.552,0-1-0.448-1-1V1c0-0.552,0.448-1,1-1h4.09c0.552,0,1,0.448,1,1v9.304
			C-10.202,10.856-10.649,11.304-11.202,11.304z"/>
	</g>
	<g id="XMLID_2316_">
		<path style="fill:#E6E6E6;" d="M-3.035,11.304h-4.09c-0.552,0-1-0.448-1-1V1c0-0.552,0.448-1,1-1h4.09c0.552,0,1,0.448,1,1v9.304
			C-2.035,10.856-2.483,11.304-3.035,11.304z"/>
	</g>
	<g id="XMLID_2313_">
		<path style="fill:#E6E6E6;" d="M5.131,11.304H1.04c-0.552,0-1-0.448-1-1V1c0-0.552,0.448-1,1-1h4.09c0.552,0,1,0.448,1,1v9.304
			C6.131,10.856,5.683,11.304,5.131,11.304z"/>
	</g>
</g>
</svg>
