<?xml version="1.0" encoding="iso-8859-1"?>
<!-- Generator: Adobe Illustrator 19.1.1, SVG Export Plug-In . SVG Version: 6.00 Build 0)  -->
<svg version="1.1" id="Layer_1" xmlns="http://www.w3.org/2000/svg" xmlns:xlink="http://www.w3.org/1999/xlink" x="0px" y="0px"
	 viewBox="0 0 373.886 445.725" style="enable-background:new 0 0 373.886 445.725;" xml:space="preserve">
<g id="XMLID_588_">
	<defs>
		<rect id="XMLID_191_" x="-22.719" width="397.46" height="460"/>
	</defs>
	<clipPath id="XMLID_2_">
		<use xlink:href="#XMLID_191_"  style="overflow:visible;"/>
	</clipPath>
	<g id="XMLID_2542_" style="clip-path:url(#XMLID_2_);">
		<g id="XMLID_1718_">
			
				<rect id="XMLID_2541_" x="404.127" y="140.318" transform="matrix(-0.7071 -0.7071 0.7071 -0.7071 632.4167 589.6245)" style="fill:#F2F2F2;" width="68.393" height="47.033"/>
			
				<rect id="XMLID_2540_" x="355.766" y="91.957" transform="matrix(-0.7071 -0.7071 0.7071 -0.7071 584.0557 472.8704)" style="fill:#F2F2F2;" width="68.393" height="47.033"/>
			
				<rect id="XMLID_2539_" x="382.38" y="181.376" transform="matrix(0.7071 -0.7071 0.7071 0.7071 -23.8945 351.8067)" style="fill:#F2F2F2;" width="60.681" height="46.742"/>
			
				<rect id="XMLID_2538_" x="318.71" y="117.705" transform="matrix(0.7071 -0.7071 0.7071 0.7071 2.4787 288.136)" style="fill:#F2F2F2;" width="60.681" height="46.742"/>
			
				<rect id="XMLID_2305_" x="337.612" y="206.833" transform="matrix(-0.7071 -0.7071 0.7071 -0.7071 471.8358 656.1393)" style="fill:#F2F2F2;" width="68.393" height="47.033"/>
			
				<rect id="XMLID_2291_" x="289.251" y="158.472" transform="matrix(-0.7071 -0.7071 0.7071 -0.7071 423.4747 539.3853)" style="fill:#F2F2F2;" width="68.393" height="47.033"/>
			<polygon id="XMLID_1373_" style="fill:#D7DB2D;" points="336.783,247.221 303.525,280.479 270.268,313.736 254.863,298.331 
				206.201,249.669 172.944,282.926 221.606,331.589 270.268,380.251 303.525,346.994 336.783,313.736 370.04,280.479 			"/>
			
				<rect id="XMLID_2278_" x="236.406" y="106.699" transform="matrix(0.7071 -0.7071 0.7071 0.7071 -10.1525 234.6147)" style="fill:#F2F2F2;" width="83.445" height="45.727"/>
			
				<rect id="XMLID_2277_" x="297.258" y="52.153" transform="matrix(0.7071 -0.7071 0.7071 0.7071 44.3937 257.2085)" style="fill:#F2F2F2;" width="70.835" height="45.727"/>
			
				<rect id="XMLID_2274_" x="278.772" y="10.549" transform="matrix(0.7071 0.7071 -0.7071 0.7071 114.8652 -207.8)" style="fill:#F2F2F2;" width="58.996" height="48.411"/>
			
				<rect id="XMLID_2268_" x="182.989" y="37.372" transform="matrix(0.7071 -0.7071 0.7071 0.7071 21.2937 171.8777)" style="fill:#F2F2F2;" width="70.264" height="45.727"/>
			
				<rect id="XMLID_1730_" x="232.59" y="-12.514" transform="matrix(0.7071 -0.7071 0.7071 0.7071 71.1798 192.5412)" style="fill:#F2F2F2;" width="70.835" height="45.727"/>
			
				<rect id="XMLID_1728_" x="189.424" y="144.013" transform="matrix(-0.7071 -0.7071 0.7071 -0.7071 263.6466 444.2645)" style="fill:#F2F2F2;" width="68.819" height="47.033"/>
			
				<rect id="XMLID_1727_" x="140.762" y="95.35" transform="matrix(-0.7071 -0.7071 0.7071 -0.7071 214.9844 326.7834)" style="fill:#F2F2F2;" width="68.819" height="47.033"/>
			
				<rect id="XMLID_1725_" x="103.871" y="120.905" transform="matrix(0.7071 -0.7071 0.7071 0.7071 -62.8121 137.202)" style="fill:#F2F2F2;" width="60.681" height="47.033"/>
			
				<rect id="XMLID_1724_" x="122.909" y="210.528" transform="matrix(-0.7071 -0.7071 0.7071 -0.7071 103.0657 510.7793)" style="fill:#F2F2F2;" width="68.819" height="47.033"/>
			
				<rect id="XMLID_1719_" x="74.247" y="161.865" transform="matrix(-0.7071 -0.7071 0.7071 -0.7071 54.4034 393.2982)" style="fill:#F2F2F2;" width="68.819" height="47.033"/>
		</g>
		<path id="XMLID_1716_" style="fill:#F2F2F2;" d="M105.838,334.187c-86.303-89.707-85.264-232.886,3.14-321.291
			s231.584-89.444,321.291-3.14l28.066-28.066C352.992-120.253,184.961-119.219,80.913-15.17s-105.083,272.08-3.14,377.423
			L105.838,334.187z"/>
		<g id="XMLID_624_">
			<path id="XMLID_937_" style="fill:#F2F2F2;" d="M466.822-9.747l-28.085,28.085c84.172,89.834,82.221,231.391-5.458,319.07
				c-43.401,43.4-100.21,65.731-157.21,67.021v39.81c67-1.301,134.057-27.546,185.275-78.765
				C564.669,262.149,566.631,95.723,466.822-9.747z"/>
			<path id="XMLID_1161_" style="fill:#F2F2F2;" d="M263.069,404.356c-54-1.857-106.817-22.42-148.741-61.702l-28.131,28.085
				c49.75,47.08,112.872,71.552,176.872,73.436V404.356z"/>
		</g>
	</g>
</g>
<path id="XMLID_2426_" style="display:none;fill:#B4B4B4;" d="M66.824,78.71H53.496v-1.605c0-0.886-0.597-1.605-1.333-1.605H41.502
	c-0.736,0-1.333,0.719-1.333,1.605v1.605H26.842c-0.736,0-1.333,0.719-1.333,1.605v32.102c0,0.886,0.597,1.605,1.333,1.605h9.406
	l-5.16,8.701l2.17,1.865l6.266-10.566H45.5v11.236h2.665v-11.236h5.976l6.268,10.566l2.168-1.865l-5.16-8.701h9.406
	c0.737,0,1.333-0.719,1.333-1.605V80.315C68.156,79.429,67.561,78.71,66.824,78.71z M42.835,78.71h7.996v3.21h-7.996V78.71z
	 M40.169,81.92v1.605c0,0.886,0.597,1.605,1.333,1.605h10.662c0.736,0,1.333-0.719,1.333-1.605V81.92h11.995v22.472H28.175V81.92
	H40.169z M28.175,110.812v-3.21h37.316v3.21H28.175z"/>
<g id="XMLID_2431_" style="display:none;">
	<path id="XMLID_2436_" style="display:inline;fill:#B4B4B4;" d="M66.617,75.648H32.788c-0.543,0-0.984,0.441-0.984,0.984v33.681
		l-5.05,5.05c-1.247,1.247-1.247,3.276,0,4.524c0.624,0.624,1.443,0.935,2.262,0.935s1.638-0.312,2.262-0.935l0.526-0.526v4.711
		c0,0.544,0.441,0.984,0.984,0.984h25.723c0.261,0,0.511-0.104,0.696-0.288l8.106-8.106c0.185-0.185,0.288-0.435,0.288-0.696V76.632
		C67.601,76.089,67.16,75.648,66.617,75.648z M29.886,118.494c-0.48,0.48-1.26,0.48-1.74,0s-0.48-1.26,0-1.74l9.43-9.43l1.74,1.74
		L29.886,118.494z M34.746,116.35l7.165-7.165c0.361-0.361,0.361-0.946,0-1.307l-0.845-0.845l1.767-1.767
		c1.9,1.587,4.344,2.543,7.008,2.543c6.038,0,10.95-4.912,10.95-10.95c0-6.038-4.912-10.95-10.95-10.95s-10.95,4.912-10.95,10.95
		c0,2.71,0.99,5.194,2.628,7.108l-1.759,1.759l-0.788-0.788c-0.173-0.173-0.408-0.271-0.653-0.271c-0.245,0-0.48,0.097-0.653,0.271
		l-2.918,2.918v-28.85h29.912v35.08l-6.692-0.006h-0.001c-0.245,0-0.48,0.097-0.654,0.271c-0.173,0.173-0.271,0.409-0.271,0.654
		l0.006,6.692H34.746V116.35z M41.223,97.078c0-4.898,3.685-8.874,8.583-8.874s8.686,3.596,8.686,8.494s-3.743,8.837-8.641,8.837
		S41.223,101.975,41.223,97.078z M59.489,116.944h4.214l-4.214,4.093V116.944z"/>
	<path id="XMLID_2435_" style="display:inline;fill:#B4B4B4;" d="M44.388,97.665h11.023c0.543,0,0.984-0.441,0.984-0.984
		s-0.441-0.984-0.984-0.984H44.388c-0.543,0-0.984,0.441-0.984,0.984S43.844,97.665,44.388,97.665z"/>
	<path id="XMLID_2434_" style="display:inline;fill:#B4B4B4;" d="M56.395,100.52c0-0.544-0.441-0.984-0.984-0.984H44.388
		c-0.543,0-0.984,0.441-0.984,0.984s0.441,0.984,0.984,0.984h11.023C55.954,101.504,56.395,101.063,56.395,100.52z"/>
	<path id="XMLID_2433_" style="display:inline;fill:#B4B4B4;" d="M44.388,93.729h4.429c0.543,0,0.984-0.441,0.984-0.984
		s-0.441-0.984-0.984-0.984h-4.429c-0.543,0-0.984,0.441-0.984,0.984S43.844,93.729,44.388,93.729z"/>
	<path id="XMLID_2432_" style="display:inline;fill:#B4B4B4;" d="M51.769,93.729h0.591c0.543,0,0.984-0.441,0.984-0.984
		s-0.441-0.984-0.984-0.984h-0.591c-0.543,0-0.984,0.441-0.984,0.984S51.226,93.729,51.769,93.729z"/>
</g>
<path id="XMLID_2442_" style="display:none;fill:#B4B4B4;" d="M68.537,83.665v-3.08c0-2.651-2.157-4.808-4.808-4.808H50.907
	c-2.09,0-3.872,1.34-4.534,3.205h-8.288c-2.651,0-4.808,2.157-4.808,4.808s2.157,4.808,4.808,4.808h12.822
	c2.09,0,3.872-1.34,4.534-3.205h3.207l-2.699,17.096h-4.507v-8.014c0-1.317-1.509-2.074-2.564-1.282l-10.257,7.693v-6.411
	c0-1.317-1.509-2.074-2.564-1.282l-12.822,9.616c-0.404,0.303-0.641,0.778-0.641,1.282v19.232c0,0.885,0.718,1.603,1.603,1.603
	h45.944c0.885,0,1.603-0.718,1.603-1.603v-19.232C71.742,103.88,71.861,104.72,68.537,83.665z M60.712,92.872h6.034l0.506,3.205
	h-7.046L60.712,92.872z M54.112,82.188c-0.885,0-1.603,0.718-1.603,1.603c0,0.884-0.719,1.603-1.603,1.603H38.085
	c-0.884,0-1.603-0.719-1.603-1.603s0.719-1.603,1.603-1.603h9.616c0.885,0,1.603-0.718,1.603-1.603c0-0.884,0.719-1.603,1.603-1.603
	h12.822c0.884,0,1.603,0.719,1.603,1.603v1.603C63.812,82.188,55.851,82.188,54.112,82.188z M65.565,85.393l0.675,4.274h-5.021
	l0.675-4.274H65.565z M59.7,99.283h8.058l0.506,3.205h-9.07L59.7,99.283z M68.537,121.721H25.798v-16.828l9.616-7.212v6.411
	c0,1.317,1.509,2.074,2.564,1.282l10.257-7.693v6.411c0,0.885,0.718,1.603,1.603,1.603h18.698V121.721z"/>
<g id="XMLID_2449_" style="display:none;">
	<path id="XMLID_2454_" style="display:inline;fill:#B4B4B4;" d="M46.93,103.542c7.668,0,13.886-6.218,13.886-13.884
		c0-7.666-6.218-13.842-13.886-13.842c-7.666,0-13.885,6.218-13.885,13.842S39.264,103.542,46.93,103.542L46.93,103.542z
		 M46.93,79.437c5.623,0,10.224,4.6,10.224,10.222c0,5.622-4.6,10.222-10.224,10.222c-5.622,0-10.222-4.6-10.222-10.222
		C36.708,84.037,41.309,79.437,46.93,79.437L46.93,79.437z M46.93,79.437"/>
	<path id="XMLID_2450_" style="display:inline;fill:#B4B4B4;" d="M22.91,125.223h48.214c1.023,0,1.832-0.809,1.832-1.833
		c0-9.583-7.794-17.419-17.421-17.419H38.497c-9.583,0-17.42,7.794-17.42,17.419C21.078,124.414,21.887,125.223,22.91,125.223
		L22.91,125.223z M38.497,109.634h17.037c6.986,0,12.736,5.197,13.63,11.927H24.869C25.763,114.872,31.514,109.634,38.497,109.634
		L38.497,109.634z M38.497,109.634"/>
</g>
</svg>
