<?xml version="1.0" encoding="utf-8"?>
<!-- Generator: Adobe Illustrator 19.0.0, SVG Export Plug-In . SVG Version: 6.00 Build 0)  -->
<svg version="1.1" id="Layer_1" xmlns="http://www.w3.org/2000/svg" xmlns:xlink="http://www.w3.org/1999/xlink" x="0px" y="0px"
	 viewBox="0 0 223.1 58.5" style="enable-background:new 0 0 223.1 58.5;" xml:space="preserve">
<style type="text/css">
	.st0{fill:#29ABE2;}
	.st1{fill:none;stroke:#29ABE2;stroke-width:3;stroke-miterlimit:10;stroke-dasharray:8,8;}
	.st2{fill:#29ABE2;stroke:#29ABE2;stroke-miterlimit:10;}
</style>
<path id="XMLID_3126_" class="st0" d="M218.6,11.5V8.3c0-2.8-2.1-4.8-4.8-4.8h-13.3c-2.2,0-4,1-4.7,3h-8.6c-2.8,0-5,2.2-5,5
	s2.2,5,5,5h13.3c2.2,0,4-1,4.7-3h3.3l-2.8,18h-5.1v-8.8c0-1.4-1.4-2.2-2.5-1.3l-10.5,8v-6.7c0-1.4-1.5-2.2-2.6-1.3l-13.5,10
	c-0.4,0.3-0.9,0.8-0.9,1.3v20c0,0.9,1.2,1.9,2.1,1.9h47.7c0.9,0,2.1-0.9,2.1-1.9v-20C222.6,32.5,222.6,33.3,218.6,11.5z M210.6,21.5
	h6.3l0.5,3h-7.3L210.6,21.5z M203.8,10.5c-0.9,0-1.7,0.6-1.7,1.5c0,0.9-0.7,1.5-1.7,1.5h-13.3c-0.9,0-1.7-0.6-1.7-1.5
	s0.7-1.5,1.7-1.5h10c0.9,0,1.7-1.1,1.7-2c0-0.9,0.7-2,1.7-2h13.3c0.9,0,1.8,0.9,1.8,1.8v2.2C213.6,10.5,205.6,10.5,203.8,10.5z
	 M215.7,13.5l0.7,4h-5.2l0.7-4H215.7z M209.6,27.5h8.4l0.5,4h-9.4L209.6,27.5z M218.6,51.5h-44v-18l10-7.5v6.7
	c0,1.4,1.4,2.2,2.5,1.3l10.5-8v6.7c0,0.9,0.9,1.8,1.8,1.8h19.2V51.5z"/>
<g id="XMLID_3177_">
	<g id="XMLID_67_">
		<line id="XMLID_70_" class="st1" x1="58.6" y1="39" x2="152.6" y2="39"/>
		<g id="XMLID_68_">
			<polygon id="XMLID_69_" class="st0" points="150.6,46.6 164.1,38.8 150.6,31 			"/>
		</g>
	</g>
</g>
<g id="XMLID_484_">
	<path id="XMLID_485_" class="st2" d="M45.1,22.9v-2.1c0-5-1.7-9.7-4.9-13.2C36.9,4,32.4,2,27.5,2h-1.7c-5,0-9.4,2-12.7,5.5
		C9.8,11,8.1,15.7,8.1,20.8v2.1c-4,0.3-7,3.5-7,7.5v3.3c0,4.2,3.1,7.3,7.3,7.3h4.2c0.8,0,1.5-0.4,1.5-1.2V24.2
		c0-0.8-0.7-1.2-1.5-1.2h-1.5v-2.2c0-9.1,6-15.8,14.6-15.8h1.7c8.6,0,14.6,6.7,14.6,15.8V23h-1.5c-0.8,0-1.5,0.5-1.5,1.2v15.6
		c0,0.8,0.7,1.2,1.5,1.2h1.9c-0.6,8-5.5,8.9-7.8,9.3C34,48.4,32.2,47,30.1,47h-3.5c-2.7,0-4.8,2.3-4.8,5c0,2.7,2.2,5,4.8,5h3.5
		c2.2,0,4.1-1.6,4.7-3.7c1.1-0.2,2.9-0.6,4.7-1.6c2.5-1.5,5.3-4.5,5.7-10.5c3.9-0.2,6.9-3.5,6.9-7.5v-3.3
		C52.1,26.4,49.1,23.1,45.1,22.9L45.1,22.9z M11.1,39H8.4c-2.6,0-4.3-2.7-4.3-5.3v-3.3c0-2.6,1.7-4.4,4.3-4.4h2.7V39z M30.1,54h-3.5
		c-1.2,0-2.1-0.8-2.1-2c0-1.2,0.9-2,2.1-2h3.5c1.2,0,2.1,0.8,2.1,2C32.1,53.2,31.2,54,30.1,54L30.1,54z M50.1,33.7
		c0,2.6-2.6,5.3-5.3,5.3h-2.7V26h2.7c2.6,0,5.3,1.7,5.3,4.4V33.7z M49.6,33.7"/>
</g>
</svg>
