<?xml version="1.0" encoding="iso-8859-1"?>
<!-- Generator: Adobe Illustrator 19.1.1, SVG Export Plug-In . SVG Version: 6.00 Build 0)  -->
<svg version="1.1" id="Layer_1" xmlns="http://www.w3.org/2000/svg" xmlns:xlink="http://www.w3.org/1999/xlink" x="0px" y="0px"
	 viewBox="0 0 255.418 71.134" style="enable-background:new 0 0 255.418 71.134;" xml:space="preserve">
<g id="XMLID_3104_">
	<path id="XMLID_3113_" style="fill:#2EABE2;" d="M36.253,41.146c9.976,0,18.066-8.09,18.066-18.064
		c0-9.973-8.09-18.01-18.066-18.01c-9.974,0-18.064,8.09-18.064,18.01S26.279,41.146,36.253,41.146L36.253,41.146z M36.253,9.784
		c7.316,0,13.301,5.985,13.301,13.299s-5.985,13.299-13.301,13.299c-7.314,0-13.299-5.985-13.299-13.299S28.939,9.784,36.253,9.784
		L36.253,9.784z M36.253,9.784"/>
	<path id="XMLID_3109_" style="fill:#2EABE2;" d="M5.001,69.354h62.728c1.331,0,2.383-1.053,2.383-2.384
		c0-12.468-10.141-22.663-22.666-22.663H25.281c-12.468,0-22.664,10.141-22.664,22.663C2.617,68.301,3.67,69.354,5.001,69.354
		L5.001,69.354z M25.281,49.071h22.166c9.089,0,16.57,6.761,17.733,15.517H7.55C8.714,55.887,16.195,49.071,25.281,49.071
		L25.281,49.071z M25.281,49.071"/>
</g>
<path id="XMLID_597_" style="fill:#2EABE2;" d="M247.556,14.383v-4.012c0-3.453-2.81-6.263-6.263-6.263h-16.702
	c-2.722,0-5.044,1.745-5.905,4.175H207.89c-3.453,0-6.263,2.81-6.263,6.263s2.81,6.263,6.263,6.263h16.702
	c2.722,0,5.044-1.745,5.905-4.175h4.178l-3.516,22.269h-5.871V28.465c0-1.716-1.966-2.701-3.34-1.67l-13.361,10.021v-8.351
	c0-1.716-1.966-2.702-3.34-1.67l-16.702,12.526c-0.526,0.394-0.835,1.013-0.835,1.67v25.053c0,1.153,0.935,2.088,2.088,2.088h59.848
	c1.153,0,2.088-0.935,2.088-2.088V40.991C251.732,40.715,251.887,41.81,247.556,14.383z M237.363,26.377h7.86l0.659,4.175h-9.178
	L237.363,26.377z M228.767,12.459c-1.153,0-2.088,0.935-2.088,2.088c0,1.151-0.937,2.088-2.088,2.088H207.89
	c-1.151,0-2.088-0.937-2.088-2.088s0.937-2.088,2.088-2.088h12.526c1.153,0,2.088-0.935,2.088-2.088
	c0-1.151,0.937-2.088,2.088-2.088h16.702c1.151,0,2.088,0.937,2.088,2.088v2.088C241.402,12.459,231.032,12.459,228.767,12.459z
	 M243.684,16.634l0.879,5.567h-6.541l0.879-5.567H243.684z M236.045,34.728h10.497l0.659,4.175h-11.815L236.045,34.728z
	 M247.556,63.956h-55.672V42.035l12.526-9.395v8.351c0,1.716,1.965,2.701,3.34,1.67l13.361-10.021v8.351
	c0,1.153,0.935,2.088,2.088,2.088h24.357V63.956z"/>
<g id="XMLID_3177_">
	<g>
		
			<line style="fill:none;stroke:#2EABE2;stroke-width:3;stroke-miterlimit:10;stroke-dasharray:8,8;" x1="68.56" y1="41.551" x2="168.56" y2="41.551"/>
		<g>
			<polygon style="fill:#2EABE2;" points="166.56,49.02 180.031,41.241 166.56,33.463 			"/>
		</g>
	</g>
</g>
</svg>
